<svg width="48" height="58" viewBox="0 0 48 58" fill="none" xmlns="http://www.w3.org/2000/svg">
<path d="M27.6798 51.8592L20.8248 54.9296L13.97 51.8592L16.2035 45.6344L17.0437 43.2911L20.8248 40.6315L24.6059 43.2911L25.4463 45.6344L27.6798 51.8592Z" fill="#FF4755"/>
<path d="M18.5007 51.8592L20.8254 54.9296L13.9705 51.8592L17.0443 43.2911L20.8254 40.6315L19.5429 43.2911L18.5007 51.8592Z" fill="#C61926"/>
<path d="M25.4463 45.6344H16.2036L17.0438 43.2911L20.8249 40.6315L24.606 43.2911L25.4463 45.6344Z" fill="#C61926"/>
<path d="M28.7267 35.5417H12.9234C11.5506 35.5417 10.4377 36.6546 10.4377 38.0274V40.8056C10.4377 42.1783 11.5506 43.2912 12.9234 43.2912H28.7267C30.0994 43.2912 31.2123 42.1783 31.2123 40.8056V38.0274C31.2123 36.6546 30.0994 35.5417 28.7267 35.5417Z" fill="#FF4755"/>
<path d="M17.4845 43.2909H12.923C11.5502 43.2909 10.4377 42.1773 10.4377 40.8056V38.027C10.4377 36.6542 11.5503 35.5417 12.923 35.5417H17.4845C16.1117 35.5417 14.9992 36.6543 14.9992 38.027V40.8056C14.9991 42.1773 16.1117 43.2909 17.4845 43.2909Z" fill="#C61926"/>
<path d="M41.1417 20.3159C41.1417 20.8103 41.1244 21.2999 41.0888 21.7848C40.8483 25.165 39.7796 28.3162 38.0847 31.0376C35.325 35.4721 30.903 38.7647 25.6894 40.0461C24.1311 40.4289 22.5025 40.6318 20.8259 40.6318C19.1492 40.6318 17.5207 40.4288 15.9624 40.0461C10.7487 38.7647 6.32678 35.4721 3.56702 31.0376C1.8721 28.3163 0.803408 25.165 0.562912 21.7848C0.527342 21.2999 0.51001 20.8103 0.51001 20.3159C0.51001 15.3245 2.30982 10.7544 5.29558 7.21726C7.40023 4.72496 10.0936 2.74628 13.1622 1.49475C15.5266 0.530949 18.1141 0 20.8258 0C23.5374 0 26.1251 0.530949 28.4895 1.49486C31.558 2.74628 34.2514 4.72496 36.3561 7.21738C39.3419 10.7544 41.1417 15.3245 41.1417 20.3159Z" fill="#FDE200"/>
<path d="M30.3926 34.3594C30.122 34.3594 29.8552 34.2342 29.6838 33.9984L23.3815 25.324C23.0974 24.933 23.1842 24.3856 23.5752 24.1015C23.9664 23.8174 24.5137 23.9042 24.7978 24.2952L31.1001 32.9696C31.3842 33.3607 31.2975 33.9081 30.9065 34.1922C30.751 34.305 30.5709 34.3594 30.3926 34.3594Z" fill="#FF4755"/>
<path d="M11.9044 33.4679C11.7261 33.4679 11.5461 33.4136 11.3907 33.3007C10.9996 33.0165 10.9129 32.4692 11.197 32.0781L16.2035 25.187C16.4877 24.7959 17.035 24.7091 17.4261 24.9933C17.8171 25.2775 17.9039 25.8248 17.6198 26.2158L12.6132 33.107C12.442 33.3427 12.1751 33.4679 11.9044 33.4679Z" fill="#FF4755"/>
<path d="M15.9614 19.6108C15.8718 19.6108 15.7807 19.597 15.6909 19.5677L4.65469 15.9829C4.195 15.8336 3.94328 15.3398 4.09259 14.8801C4.24189 14.4203 4.73546 14.1686 5.19538 14.318L16.2316 17.9028C16.6913 18.0521 16.943 18.5459 16.7937 19.0056C16.6735 19.3756 16.3304 19.6108 15.9614 19.6108Z" fill="#FF4755"/>
<path d="M26.3176 19.4063C25.9487 19.4063 25.6056 19.1712 25.4855 18.8012C25.3361 18.3415 25.5877 17.8477 26.0475 17.6984L35.8245 14.5226C36.2845 14.3734 36.7781 14.6247 36.9273 15.0847C37.0767 15.5444 36.8252 16.0382 36.3653 16.1875L26.5883 19.3633C26.4983 19.3925 26.4074 19.4063 26.3176 19.4063Z" fill="#FF4755"/>
<path d="M20.8247 15.1899C20.3413 15.1899 19.9495 14.7981 19.9495 14.3147V4.48617C19.9495 4.0028 20.3413 3.61096 20.8247 3.61096C21.308 3.61096 21.6999 4.0028 21.6999 4.48617V14.3147C21.7 14.7981 21.3082 15.1899 20.8247 15.1899Z" fill="#FF4755"/>
<path d="M23.0027 40.0459C23.4452 40.1546 23.8925 40.2489 24.3455 40.3278C23.2019 40.5278 22.0254 40.6317 20.8249 40.6317C19.1482 40.6317 17.5197 40.4287 15.9614 40.0459C10.7477 38.7646 6.3258 35.472 3.56604 31.0375C1.87113 28.3162 0.802431 25.1649 0.561935 21.7847C0.526365 21.2998 0.509033 20.8102 0.509033 20.3157C0.509033 15.3243 2.30884 10.7542 5.2946 7.21715C7.39925 4.72485 10.0927 2.74616 13.1612 1.49463C15.5257 0.530949 18.1133 0 20.8249 0C22.0253 0 23.2019 0.103879 24.3455 0.303934C22.9065 0.554965 21.5203 0.95802 20.2025 1.49486C17.134 2.74628 14.4406 4.72496 12.3359 7.21738C9.35006 10.7544 7.55037 15.3245 7.55037 20.316C7.55037 20.8104 7.5677 21.3 7.60327 21.7849C7.84376 25.1651 8.91246 28.3163 10.6074 31.0377C13.3671 35.472 17.7891 38.7647 23.0027 40.0459Z" fill="#EAB14D"/>
<path d="M28.4887 1.49486L20.825 7.06343L16.1856 3.69184L13.1614 1.49486C15.5258 0.530949 18.1134 0 20.825 0C22.0245 0 23.199 0.103879 24.3399 0.303027C24.3418 0.303027 24.3437 0.303934 24.3456 0.303934C25.7848 0.555078 27.1709 0.95802 28.4887 1.49486Z" fill="#FF4755"/>
<path d="M8.22077 16.221L0.561935 21.7848C0.526365 21.3 0.509033 20.8104 0.509033 20.3159C0.509033 15.3245 2.30885 10.7544 5.2946 7.21729L8.22077 16.221Z" fill="#C61926"/>
<path d="M15.9615 40.0459C10.7479 38.7646 6.32592 35.472 3.56616 31.0375H13.0353L14.5311 35.6432L15.9615 40.0459Z" fill="#FF4755"/>
<path d="M38.0838 31.0376C35.3241 35.4721 30.9021 38.7647 25.6885 40.0461L28.6146 31.0376H38.0838Z" fill="#FF4755"/>
<path d="M41.1409 20.3159C41.1409 20.8104 41.1236 21.3 41.088 21.7848L33.4292 16.221L36.3554 7.21741C39.3411 10.7544 41.1409 15.3245 41.1409 20.3159Z" fill="#FF4755"/>
<path d="M14.5314 35.6433L15.9618 40.0461C10.7481 38.7647 6.32616 35.4721 3.56641 31.0376H10.6077C11.6811 32.7623 13.0057 34.3148 14.5314 35.6433Z" fill="#C61926"/>
<path d="M24.3456 0.303934C22.9066 0.554965 21.5204 0.95802 20.2026 1.49486C18.7751 2.07679 17.4283 2.81651 16.1856 3.69195L13.1614 1.49486C15.5258 0.530949 18.1134 0 20.825 0C22.0245 0 23.199 0.103879 24.3399 0.303027C24.3418 0.303027 24.3437 0.303934 24.3456 0.303934Z" fill="#C61926"/>
<path d="M20.8249 11.7374L12.6663 17.6651L15.7826 27.2562H25.8673L28.9836 17.6651L20.8249 11.7374Z" fill="#FF4755"/>
<path d="M32.5059 51.859H9.14349C7.44767 51.859 6.073 53.2337 6.073 54.9295C6.073 56.6253 7.44767 58 9.14349 58H32.5059C34.2018 58 35.5764 56.6253 35.5764 54.9295C35.5764 53.2337 34.2018 51.859 32.5059 51.859Z" fill="#5A5A5A"/>
<path d="M14.7859 57.1001C15.3414 57.6568 16.1093 57.9999 16.9565 57.9999H9.14337C8.29501 57.9999 7.52821 57.6568 6.97279 57.1001C6.41613 56.5446 6.073 55.7779 6.073 54.9295C6.073 53.2338 7.44766 51.8591 9.14337 51.8591H16.9565C15.2608 51.8591 13.8861 53.2338 13.8861 54.9295C13.8861 55.7779 14.2304 56.5447 14.7859 57.1001Z" fill="#333333"/>
<path d="M42.7991 9.76393L46.6071 8.92984C47.7858 8.67167 47.7858 6.99092 46.6071 6.73275L42.7991 5.89866C42.3701 5.80475 42.0352 5.46967 41.9412 5.04078L41.1072 1.23283C40.849 0.0541431 39.1682 0.0541431 38.9101 1.23283L38.076 5.04078C37.9821 5.46978 37.647 5.80475 37.2181 5.89866L33.4101 6.73275C32.2315 6.99092 32.2315 8.67167 33.4101 8.92984L37.2181 9.76393C37.6471 9.85784 37.9821 10.1929 38.076 10.6218L38.9101 14.4298C39.1682 15.6084 40.849 15.6084 41.1072 14.4298L41.9412 10.6218C42.035 10.1929 42.3701 9.85784 42.7991 9.76393Z" fill="#E0E0E0"/>
<path d="M14.8019 39.3203L18.9165 38.419C20.19 38.14 20.19 36.3239 18.9165 36.045L14.8019 35.1437C14.3385 35.0422 13.9764 34.6801 13.8749 34.2167L12.9737 30.1021C12.6947 28.8286 10.8785 28.8286 10.5996 30.1021L9.69837 34.2167C9.59687 34.6801 9.23483 35.0422 8.77139 35.1437L4.65679 36.045C3.38328 36.324 3.38328 38.1401 4.65679 38.419L8.77139 39.3203C9.23483 39.4218 9.59687 39.7838 9.69837 40.2472L10.5996 44.3618C10.8787 45.6353 12.6948 45.6353 12.9737 44.3618L13.8749 40.2472C13.9764 39.7838 14.3385 39.4218 14.8019 39.3203Z" fill="#E0E0E0"/>
</svg>
