<svg width="58" height="58" viewBox="0 0 58 58" fill="none" xmlns="http://www.w3.org/2000/svg">
<path d="M51.7262 46.6941L45.5273 47.5102L46.3796 49.028L44.8092 49.7242L43.9259 52.4482C43.83 52.7436 43.9799 53.0632 44.2682 53.1785C48.5716 54.8982 51.5371 56.8547 52.9418 57.8847C53.3301 58.1695 53.8769 57.8948 53.8813 57.4132L53.9159 53.5896C53.9178 53.3729 54.0383 53.1748 54.2297 53.0732L57.5067 51.3335C57.8878 51.1312 57.9313 50.6023 57.5876 50.3415C56.6009 49.5932 54.6119 48.1961 51.7262 46.6941Z" fill="#C61926"/>
<path d="M49.6669 51.4031L50.3243 49.8966C50.2758 49.8644 49.4843 47.7686 49.4843 47.7686L45.5272 47.5101L44.8091 49.7242C46.7482 50.5182 48.116 51.2602 48.8281 51.6772C49.1334 51.856 49.5254 51.7274 49.6669 51.4031Z" fill="#B72228"/>
<path d="M13.5519 16.1307L11.4356 14.9473L8.90964 15.9687C8.6867 16.0588 8.54068 16.2751 8.54034 16.5156L8.51565 34.0357C8.50829 38.67 10.1993 43.172 13.3347 46.7531C13.4272 46.8586 13.5213 46.9646 13.6172 47.0707L15.3163 47.7976L15.1687 48.6615C18.2371 51.5776 22.6332 54.5066 28.8181 56.4893C28.936 56.527 29.0642 56.527 29.182 56.4893C35.367 54.5067 39.7631 51.5776 42.8316 48.6615L42.5679 47.9168L44.383 47.0706C44.4788 46.9645 44.573 46.8585 44.6654 46.753C47.8007 43.1719 49.4919 38.6699 49.4845 34.0355L49.4598 16.5155C49.4595 16.275 49.3134 16.0587 49.0905 15.9685L46.5646 14.9472L44.4482 16.1305H13.5519V16.1307Z" fill="#FDE200"/>
<path d="M46.5645 14.9473L44.4482 14.0916H13.5521L11.4358 14.9473C11.4291 15.146 11.4246 15.3452 11.4246 15.5455C11.4246 25.2705 19.2934 33.1542 29.0001 33.1542C38.7069 33.1542 46.5756 25.2705 46.5756 15.5455C46.5757 15.3452 46.5711 15.146 46.5645 14.9473Z" fill="#F9CF58"/>
<path d="M29.0001 44.3824C22.5648 44.3824 17.305 45.7145 13.6184 47.0696C14.0936 47.5959 14.6084 48.1281 15.1692 48.6611C18.7227 47.5113 23.4194 46.5094 29.0001 46.5094C34.5808 46.5094 39.2774 47.5114 42.8309 48.6611C43.3918 48.1281 43.9065 47.5959 44.3817 47.0696C40.695 45.7146 35.4354 44.3824 29.0001 44.3824Z" fill="#F9CF58"/>
<path d="M6.27383 46.6941L12.4727 47.5102L11.6204 49.0281L13.1908 49.7244L14.0743 52.4483C14.1701 52.7438 14.0203 53.0633 13.7319 53.1787C9.42849 54.8984 6.4629 56.8549 5.05832 57.8848C4.66999 58.1696 4.12319 57.8949 4.11888 57.4134L4.08422 53.5898C4.08229 53.3731 3.96187 53.1749 3.77043 53.0733L0.493428 51.3335C0.11235 51.1312 0.0688498 50.6023 0.412545 50.3415C1.39922 49.5932 3.3881 48.1961 6.27383 46.6941Z" fill="#C61926"/>
<path d="M8.33291 51.4031L7.67554 49.8966C7.72402 49.8644 8.51552 47.7686 8.51552 47.7686L12.4727 47.5101L13.1907 49.7242C11.2516 50.5182 9.88384 51.2602 9.17176 51.6772C8.86658 51.856 8.4744 51.7274 8.33291 51.4031Z" fill="#B72228"/>
<path d="M49.4844 47.7687C49.4844 47.7687 42.0955 43.3631 29 43.3631C15.9044 43.3631 8.51554 47.8239 8.51554 47.8239L6.61185 47.4688L4.28483 42.136C4.16634 41.8645 4.26682 41.5469 4.52057 41.3942C6.56359 40.1643 15.604 35.2238 29.0001 35.2238C42.3962 35.2238 51.4366 40.1642 53.4796 41.3942C53.7333 41.5469 53.8337 41.8645 53.7153 42.136L51.3883 47.4688L49.4844 47.7687Z" fill="#FF4755"/>
<path d="M28.9999 41.8549C16.8774 41.8549 8.64114 46.2612 6.61182 47.4686L7.67224 49.8987C7.67224 49.8987 15.9045 44.3825 28.9999 44.3825C42.0954 44.3825 50.3276 49.8987 50.3276 49.8987L51.388 47.4686C49.3587 46.2613 41.1225 41.8549 28.9999 41.8549Z" fill="#FC2B3A"/>
<path d="M44.5161 15.5455C44.5161 14.9709 44.485 14.4037 44.4244 13.8453L41.6544 6.54777C39.5785 3.62251 36.5176 1.44796 32.9561 0.509766H25.0437C21.4823 1.44785 18.4212 3.62239 16.3454 6.54766L13.5754 13.8452C13.5148 14.4036 13.4836 14.9708 13.4836 15.5454C13.4836 18.8679 14.7466 21.2132 16.5188 23.7396L23.1466 29.393H34.8528L41.5031 23.8133C43.2755 21.287 44.5161 18.868 44.5161 15.5455Z" fill="#5A5A5A"/>
<path d="M29 28.9641C20.7876 28.9641 14.0664 22.5714 13.5207 14.482C13.497 14.8335 13.4839 15.188 13.4839 15.5455C13.4839 18.868 14.5243 21.947 16.2964 24.4735L20.02 26.8371L23.147 29.9469C24.9532 30.6845 26.9292 31.0909 29.0001 31.0909C31.071 31.0909 33.047 30.6845 34.8531 29.9469L37.4694 27.1911L41.7037 24.4734C43.4759 21.9469 44.5162 18.8679 44.5162 15.5454C44.5162 15.1878 44.503 14.8334 44.4793 14.4819C43.9337 22.5715 37.2125 28.9641 29 28.9641Z" fill="#4C4C4C"/>
<path d="M44.4234 13.8455C44.1302 11.1451 43.1477 8.65208 41.6544 6.54777L35.5715 6.3655L32.956 0.510672C31.6929 0.177965 30.3673 0 29 0C27.6327 0 26.3071 0.177965 25.044 0.510672L22.4286 6.36561L16.3456 6.54788C14.8523 8.65219 13.8698 11.1452 13.5767 13.8456L18.1235 18.4397L16.7537 22.9646L16.9648 24.5859L22.9211 28.673L25.7968 28.6318L29 27.0426L32.2033 28.6316L34.8559 29L40.6222 24.8642L41.2464 22.9646L39.8766 18.4397L44.4234 13.8455ZM29 22.0696L23.1442 17.807L25.3809 10.9101H32.619L34.8557 17.807L29 22.0696Z" fill="#E0E0E0"/>
<path d="M16.7538 22.9645L16.2971 24.473C17.9977 26.8974 20.372 28.8124 23.1475 29.9459L25.7968 28.6317C22.1454 27.8637 18.9665 25.81 16.7538 22.9645Z" fill="#C4C4C4"/>
<path d="M32.2034 28.6316L34.8527 29.9458C37.6282 28.8123 40.0024 26.8974 41.703 24.4729L41.2464 22.9644C39.0335 25.81 35.8547 27.8637 32.2034 28.6316Z" fill="#C4C4C4"/>
<path d="M41.8137 17.7905L34.5537 16.8758L32.9708 11.9952L36.906 5.93791C37.1726 5.52749 37.0561 4.97853 36.6457 4.71198C36.2355 4.44531 35.6864 4.56199 35.4197 4.9723L31.5623 10.9102H26.4377L21.7288 3.66197C21.4621 3.25155 20.9132 3.13487 20.5029 3.40165C20.0924 3.6682 19.9759 4.21716 20.2425 4.62758L25.029 11.9953L23.4462 16.8759L16.4611 17.7561C15.9756 17.8174 15.6314 18.2605 15.6926 18.7462C15.749 19.1942 16.1306 19.5217 16.5707 19.5217C16.6077 19.5217 16.6451 19.5194 16.6827 19.5147L24.1902 18.5687L28.1138 21.4247V27.9183C28.1138 28.4078 28.5105 28.8045 29 28.8045C29.4895 28.8045 29.8862 28.4078 29.8862 27.9183V21.4247L33.8097 18.5687L41.5921 19.5492C41.6297 19.554 41.667 19.5562 41.704 19.5562C42.144 19.5562 42.5257 19.2286 42.5822 18.7807C42.6433 18.2951 42.2993 17.8517 41.8137 17.7905Z" fill="#5A5A5A"/>
</svg>
