<svg width="58" height="58" viewBox="0 0 58 58" fill="none" xmlns="http://www.w3.org/2000/svg">
<path d="M40.4404 22.0389V26.0117H17.7864V22.0389C17.7864 15.907 22.6835 10.8977 28.7724 10.7176C34.8403 10.442 40.4404 15.4502 40.4404 22.0389Z" fill="#FF4755"/>
<path d="M40.4403 22.0389V26.0116H28.9966V10.7107C35.0617 10.5941 40.4403 15.5852 40.4403 22.0389Z" fill="#C61926"/>
<path d="M36.0426 7.05511C36.0426 10.9924 32.7918 14.2266 28.7722 14.1069C24.9886 13.9891 21.947 10.8704 21.947 7.05511C21.947 3.2398 24.9886 0.121163 28.7722 0.00335037C32.7766 -0.116275 36.0426 3.10431 36.0426 7.05511Z" fill="#F6E1BE"/>
<path d="M36.0426 7.05516C36.0426 10.9407 32.8866 14.108 28.9988 14.1103V0C32.8866 0.00339844 36.0426 3.16961 36.0426 7.05516Z" fill="#F1CEA0"/>
<path d="M22.6551 54.0262V58.0001H0V54.0262C0 47.7878 5.07047 42.7116 11.3055 42.7003C17.6238 42.7003 22.6551 47.8227 22.6551 54.0262Z" fill="#FDE200"/>
<path d="M22.6552 54.0261V58H11.3055C11.3055 41.9702 11.2936 42.7003 11.327 42.7003C17.5734 42.7003 22.6552 47.7809 22.6552 54.0261Z" fill="#FFBE00"/>
<path d="M18.2565 39.0436C18.2565 42.9407 15.0873 46.0987 11.2092 46.0987C7.32257 46.0987 4.16089 42.9336 4.16089 39.0436C4.16089 35.1535 7.32257 31.9884 11.2092 31.9884C15.0909 31.9884 18.2565 35.1502 18.2565 39.0436Z" fill="#F6E1BE"/>
<path d="M18.2564 39.0435C18.2564 42.9008 15.1468 46.0466 11.3054 46.0975V31.9895C15.1468 32.0405 18.2564 35.1863 18.2564 39.0435Z" fill="#F1CEA0"/>
<path d="M58 54.0262V58.0001H35.3459V54.0262C35.3459 47.7821 40.4255 42.7015 46.6707 42.7003C52.9125 42.7003 58 47.7734 58 54.0262Z" fill="#FDE200"/>
<path d="M57.9999 54.026V57.9999H46.6707C46.6707 42.3571 46.6616 42.7002 46.6729 42.7002C52.9193 42.7002 57.9999 47.7809 57.9999 54.026Z" fill="#FFBE00"/>
<path d="M46.554 46.0987C50.4467 46.0987 53.6023 42.94 53.6023 39.0436C53.6023 35.1471 50.4467 31.9884 46.554 31.9884C42.6613 31.9884 39.5056 35.1471 39.5056 39.0436C39.5056 42.94 42.6613 46.0987 46.554 46.0987Z" fill="#F6E1BE"/>
<path d="M53.6023 39.0435C53.6023 42.894 50.5041 46.0352 46.6707 46.0975V31.9895C50.5041 32.0518 53.6023 35.1931 53.6023 39.0435Z" fill="#F1CEA0"/>
<path d="M22.3599 42.8889L24.7629 40.4858C27.716 43.439 30.2813 43.4395 33.2349 40.4858L35.6379 42.8889C31.4421 47.0847 26.7428 47.272 22.3599 42.8889Z" fill="#5A5A5A"/>
<path d="M8.4978 24.8119H5.09937C5.09937 18.8907 8.27747 15.4229 14.4885 15.4229V18.8214C10.312 18.8212 8.4978 20.6346 8.4978 24.8119Z" fill="#5A5A5A"/>
<path d="M52.9981 24.8063H49.5997C49.5997 20.6299 47.7862 18.8158 43.6091 18.8158V15.4174C49.5427 15.4174 52.9981 18.6078 52.9981 24.8063Z" fill="#5A5A5A"/>
</svg>
