<svg width="58" height="58" viewBox="0 0 58 58" fill="none" xmlns="http://www.w3.org/2000/svg">
<path d="M42.2287 26.983C41.9275 25.1468 40.9576 22.9583 38.0479 22.9583C37.6329 22.9583 37.2785 23.2575 37.209 23.6666L36.6505 26.9529C36.4299 28.2512 36.1271 29.4879 35.7509 30.6286C34.709 33.7877 33.3944 35.4069 31.0622 36.4045C29.9416 36.8837 29.0317 37.2936 28.6679 37.4588H24.3065C23.8364 37.4588 23.4556 37.8396 23.4556 38.3098V53.7238C23.4556 54.1939 23.8365 54.5748 24.3065 54.5748H28.5514L30.3801 56.0552C31.9153 57.2981 33.8485 57.9826 35.8239 57.9826H41.0085C41.4786 57.9826 41.8594 57.6016 41.8594 57.1316C41.8594 56.8136 41.6849 56.537 41.4267 56.391V39.3976H40.3682L42.1497 30.4204C42.3834 29.2439 42.4099 28.0875 42.2287 26.983Z" fill="#F7B081"/>
<path d="M24.307 35.9274H17.6952C17.2251 35.9274 16.8442 36.3083 16.8442 36.7783V54.9733C16.8442 55.4434 17.2252 55.8243 17.6952 55.8243H24.307C24.7771 55.8243 25.1579 55.4434 25.1579 54.9733V36.7784C25.158 36.3083 24.777 35.9274 24.307 35.9274Z" fill="#EFE7E4"/>
<path d="M16.8442 52.4335V54.9735C16.8442 55.4436 17.2252 55.8244 17.6952 55.8244H24.307C24.7771 55.8244 25.1579 55.4436 25.1579 54.9735V52.4335H16.8442Z" fill="#D8D1D0"/>
<path d="M39.1349 55.5482C39.1349 54.1942 40.2325 53.0967 41.5865 53.0967C40.2325 53.0967 39.1349 51.9991 39.1349 50.645C39.1349 49.2909 40.2325 48.1934 41.5865 48.1934C40.2325 48.1934 39.1349 47.0957 39.1349 45.7417C39.1349 44.3877 40.2325 43.2901 41.5865 43.2901C40.2325 43.2901 39.1349 42.1924 39.1349 40.8386C39.1349 39.4845 40.2325 38.3868 41.5865 38.3868H38.8051C37.4511 38.3868 36.3535 39.4844 36.3535 40.8386C36.3535 42.1926 37.4511 43.2901 38.8051 43.2901C37.4511 43.2901 36.3535 44.3878 36.3535 45.7417C36.3535 47.0958 37.4511 48.1934 38.8051 48.1934C37.4511 48.1934 36.3535 49.2909 36.3535 50.645C36.3535 51.999 37.4511 53.0967 38.8051 53.0967C37.4511 53.0967 36.3535 54.1943 36.3535 55.5482C36.3535 56.9023 37.4511 58 38.8051 58H41.5865C40.2325 57.9999 39.1349 56.9023 39.1349 55.5482Z" fill="#DD9A76"/>
<path d="M19.6117 12.2796C19.4229 11.6993 18.9306 11.2843 18.3267 11.1965L14.4572 10.6342L12.7267 7.12782C12.4565 6.58056 11.9096 6.2406 11.2992 6.2406C10.689 6.2406 10.1421 6.58056 9.87188 7.12782L8.14163 10.6342L4.27218 11.1965C3.66816 11.2842 3.17584 11.6992 2.98712 12.2796C2.79839 12.86 2.95279 13.4853 3.38983 13.9117L6.18991 16.6409L5.52903 20.4948C5.42583 21.0964 5.66848 21.6928 6.16204 22.0517C6.44117 22.2545 6.76753 22.3573 7.09627 22.3573C7.34923 22.3573 7.60343 22.2963 7.83849 22.1728L11.2995 20.3533L14.7604 22.1728C15.3007 22.4568 15.9428 22.4103 16.4365 22.0517C16.9303 21.693 17.173 21.0964 17.0698 20.4948L16.4088 16.6409L19.2088 13.9114C19.6461 13.4854 19.8003 12.8601 19.6117 12.2796Z" fill="#F7CB4F"/>
<path d="M18.3268 11.1966L18.2409 11.1841L13.8656 15.5028C13.6409 15.7218 13.5383 16.0374 13.5914 16.3467L14.6222 22.0999L14.7605 22.1726C15.3008 22.4566 15.943 22.4102 16.4366 22.0515C16.9304 21.6929 17.1731 21.0962 17.0699 20.4946L16.4089 16.6408L19.209 13.9113C19.6461 13.4852 19.8004 12.8599 19.6118 12.2793C19.4229 11.6991 18.9306 11.2842 18.3268 11.1966Z" fill="#FBAB00"/>
<path d="M37.5132 6.03901C37.3244 5.45867 36.8321 5.04372 36.2282 4.95593L32.3587 4.3936L30.6284 0.887217C30.3582 0.339956 29.8113 0 29.2011 0C28.5907 0 28.0439 0.339956 27.7737 0.887217L26.0432 4.3936L22.1738 4.95593C21.5698 5.0435 21.0775 5.45856 20.8887 6.03901C20.7 6.61946 20.8544 7.24466 21.2914 7.67105L24.0916 10.4004L23.4306 14.2542C23.3274 14.8558 23.5701 15.4522 24.0637 15.8111C24.5574 16.1698 25.1995 16.2162 25.74 15.9323L29.2009 14.1128L32.6619 15.9323C32.8969 16.0559 33.1511 16.1168 33.4041 16.1168C33.7329 16.1168 34.0592 16.0137 34.3384 15.8112C34.832 15.4524 35.0747 14.8559 34.9714 14.2544L34.3104 10.4006L37.1107 7.67105C37.5476 7.24478 37.7019 6.61946 37.5132 6.03901Z" fill="#FF4755"/>
<path d="M34.3383 15.8108C34.832 15.4521 35.0747 14.8555 34.9713 14.254L34.3103 10.4002L37.1106 7.67067C37.5476 7.2445 37.702 6.61919 37.5132 6.03874C37.3245 5.4584 36.8322 5.04345 36.2283 4.95566L36.1928 4.95056L31.767 9.2617C31.5423 9.48067 31.4397 9.79638 31.4927 10.1056L32.294 14.7768L32.4858 15.8391L32.6619 15.9316C32.8968 16.0552 33.151 16.1161 33.4041 16.1161C33.7328 16.1164 34.0593 16.0135 34.3383 15.8108Z" fill="#C61926"/>
<path d="M55.3818 12.2796C55.193 11.6993 54.7007 11.2843 54.0968 11.1965L50.2272 10.6342L48.4968 7.12782C48.2266 6.58056 47.6798 6.2406 47.0694 6.2406C46.4591 6.2406 45.9123 6.58056 45.6421 7.12782L43.9116 10.6342L40.0422 11.1965C39.4382 11.2842 38.9458 11.6992 38.7571 12.2796C38.5685 12.8601 38.7227 13.4854 39.1599 13.9115L41.96 16.641L41.299 20.4948C41.1958 21.0964 41.4385 21.6928 41.932 22.0517C42.4258 22.4104 43.0678 22.4569 43.6084 22.1729L47.0693 20.3534L50.5303 22.1729C50.7652 22.2965 51.0194 22.3574 51.2725 22.3574C51.6012 22.3574 51.9276 22.2543 52.2067 22.0518C52.7004 21.693 52.943 21.0965 52.8397 20.495L52.1787 16.6412L54.979 13.9117C55.4162 13.4853 55.5705 12.86 55.3818 12.2796Z" fill="#F7CB4F"/>
<path d="M55.3817 12.2797C55.1929 11.6994 54.7006 11.2844 54.0967 11.1966L54.0281 11.1866L49.6354 15.5028C49.4107 15.7218 49.3081 16.0374 49.3611 16.3467L50.291 22.047L50.5302 22.1727C50.7651 22.2963 51.0193 22.3573 51.2724 22.3573C51.6011 22.3573 51.9275 22.2542 52.2066 22.0516C52.7003 21.6929 52.9429 21.0964 52.8396 20.4948L52.1786 16.641L54.9789 13.9115C55.4161 13.4853 55.5704 12.86 55.3817 12.2797Z" fill="#FBAB00"/>
<path d="M17.695 34.1583H3.39003C2.91991 34.1583 2.53906 34.5393 2.53906 35.0093V56.7427C2.53906 57.2128 2.92003 57.5937 3.39003 57.5937H17.695C18.1652 57.5937 18.546 57.2127 18.546 56.7427V35.0093C18.5461 34.5392 18.1652 34.1583 17.695 34.1583Z" fill="#546F7A"/>
<path d="M2.53906 54.3296V56.7426C2.53906 57.2127 2.92003 57.5936 3.39003 57.5936H17.695C18.1652 57.5936 18.546 57.2126 18.546 56.7426V54.3296H2.53906Z" fill="#465A65"/>
<path d="M13.177 53.7233C13.9253 53.7233 14.5319 53.1167 14.5319 52.3684C14.5319 51.6201 13.9253 51.0134 13.177 51.0134C12.4287 51.0134 11.822 51.6201 11.822 52.3684C11.822 53.1167 12.4287 53.7233 13.177 53.7233Z" fill="#353535"/>
<path d="M49.9856 38.387H41.1206C39.5483 38.387 38.2693 39.666 38.2693 41.2382V41.7154C38.2693 43.2877 39.5483 44.5667 41.1206 44.5667H49.9856C51.5578 44.5667 52.8369 43.2876 52.8369 41.7154V41.2382C52.8369 39.6659 51.5579 38.387 49.9856 38.387Z" fill="#FFC89F"/>
<path d="M49.9856 41.817H41.1206C39.9521 41.817 38.9461 41.1102 38.506 40.1019C38.3541 40.4503 38.2693 40.8345 38.2693 41.2381V41.7153C38.2693 43.2876 39.5483 44.5666 41.1206 44.5666H49.9856C51.5578 44.5666 52.8369 43.2875 52.8369 41.7153V41.2381C52.8369 40.8344 52.752 40.4503 52.6001 40.1019C52.1603 41.1101 51.1541 41.817 49.9856 41.817Z" fill="#F7B081"/>
<path d="M51.0204 42.8646H41.1206C39.5483 42.8646 38.2693 44.1438 38.2693 45.7159V46.193C38.2693 47.7654 39.5483 49.0443 41.1206 49.0443H51.0204C52.5928 49.0443 53.8717 47.7653 53.8717 46.193V45.7159C53.8717 44.1437 52.5928 42.8646 51.0204 42.8646Z" fill="#FFC89F"/>
<path d="M51.0204 46.3208H41.1206C39.947 46.3208 38.9371 45.608 38.5003 44.5928C38.3519 44.9377 38.2693 45.3173 38.2693 45.7161V46.1932C38.2693 47.7655 39.5483 49.0445 41.1206 49.0445H51.0204C52.5928 49.0445 53.8717 47.7654 53.8717 46.1932V45.7159C53.8717 45.3172 53.7891 44.9376 53.6407 44.5927C53.204 45.608 52.194 46.3208 51.0204 46.3208Z" fill="#F7B081"/>
<path d="M49.7473 47.3424H41.3594C39.6555 47.3424 38.2695 48.7285 38.2695 50.4323C38.2695 52.1361 39.6556 53.5221 41.3594 53.5221H49.7473C51.4511 53.5221 52.8371 52.136 52.8371 50.4323C52.837 48.7285 51.4509 47.3424 49.7473 47.3424Z" fill="#FFC89F"/>
<path d="M49.7471 50.7442H41.3593C40.1549 50.7442 39.1099 50.0512 38.6004 49.0432C38.3891 49.4611 38.2693 49.9328 38.2693 50.4322C38.2693 52.136 39.6554 53.522 41.3591 53.522H49.747C51.4509 53.522 52.8369 52.1359 52.8369 50.4322C52.8369 49.9328 52.717 49.4611 52.5058 49.0432C51.9963 50.0512 50.9514 50.7442 49.7471 50.7442Z" fill="#F7B081"/>
<path d="M47.4381 51.8201H41.3591C39.6553 51.8201 38.2693 53.2062 38.2693 54.9101C38.2693 56.6139 39.6554 57.9999 41.3591 57.9999H47.4381C49.142 57.9999 50.5281 56.6138 50.5281 54.9101C50.5281 53.2063 49.142 51.8201 47.4381 51.8201Z" fill="#FFC89F"/>
<path d="M47.4381 55.2243H41.3591C40.1544 55.2243 39.109 54.5308 38.5998 53.5222C38.3889 53.9399 38.2693 54.4111 38.2693 54.9101C38.2693 56.614 39.6554 58 41.3591 58H47.4381C49.142 58 50.5281 56.6139 50.5281 54.9101C50.5281 54.4111 50.4085 53.9399 50.1976 53.5222C49.6882 54.5308 48.643 55.2243 47.4381 55.2243Z" fill="#F7B081"/>
</svg>
