<svg width="37" height="35" viewBox="0 0 37 35" fill="none" xmlns="http://www.w3.org/2000/svg">
<circle cx="23.5" cy="13.5" r="13.5" fill="#FDE200" fill-opacity="0.54"/>
<path d="M6.744 27.048C10.464 27.048 12.24 25.344 12.24 21.528V14.064C12.24 10.248 10.464 8.544 6.744 8.544C3.024 8.544 1.248 10.344 1.248 14.064V21.528C1.248 25.344 3.024 27.048 6.744 27.048ZM6.744 24.12C5.016 24.12 4.56 23.112 4.56 21.36V14.232C4.56 12.48 5.016 11.472 6.744 11.472C8.472 11.472 8.928 12.48 8.928 14.232V21.36C8.928 23.112 8.472 24.12 6.744 24.12ZM20.6308 23.28V27H23.8228V23.28H25.5988V20.28H23.8228V8.472H20.6308L13.3348 20.976L13.7188 23.28H20.6308ZM20.6308 20.28H17.3188L20.9908 13.464L20.6308 17.544V20.28Z" fill="#B72228"/>
</svg>
