<svg width="37" height="35" viewBox="0 0 37 35" fill="none" xmlns="http://www.w3.org/2000/svg">
<circle cx="23.5" cy="13.5" r="13.5" fill="#FDE200" fill-opacity="0.54"/>
<path d="M6.744 27.048C10.464 27.048 12.24 25.344 12.24 21.528V14.064C12.24 10.248 10.464 8.544 6.744 8.544C3.024 8.544 1.248 10.344 1.248 14.064V21.528C1.248 25.344 3.024 27.048 6.744 27.048ZM6.744 24.12C5.016 24.12 4.56 23.112 4.56 21.36V14.232C4.56 12.48 5.016 11.472 6.744 11.472C8.472 11.472 8.928 12.48 8.928 14.232V21.36C8.928 23.112 8.472 24.12 6.744 24.12ZM14.2468 21.168C14.2468 24.84 15.7588 27.12 19.5508 27.12C23.2708 27.12 25.1668 24.912 25.1668 21.36C25.1668 18.744 24.5668 16.008 21.6388 15.672L25.1188 8.808V8.472H14.5828V11.448H20.4388L17.6068 16.8V17.88H19.3828C21.6388 17.88 21.8068 19.728 21.8068 21.384C21.8068 23.304 21.0148 23.952 19.5268 23.952C18.0868 23.952 17.4628 22.848 17.4628 21.168H14.2468Z" fill="#B72228"/>
</svg>
