<svg width="15" height="15" viewBox="0 0 15 15" fill="none" xmlns="http://www.w3.org/2000/svg">
<path d="M7.50012 14.8839C11.5782 14.8839 14.8842 11.578 14.8842 7.49988C14.8842 3.42179 11.5782 0.115845 7.50012 0.115845C3.42203 0.115845 0.116089 3.42179 0.116089 7.49988C0.116089 11.578 3.42203 14.8839 7.50012 14.8839Z" fill="#F9FBFC"/>
<path d="M14.8678 7.95414C14.8678 7.95852 14.8685 7.96272 14.8691 7.96692C14.8699 7.95464 14.8707 7.94236 14.8714 7.93005C14.8693 7.93778 14.8678 7.94574 14.8678 7.95414Z" fill="#EAA895"/>
<path d="M14.6762 7.15305C14.7169 7.15305 14.751 7.12612 14.7627 7.08923H14.5897C14.6014 7.12612 14.6355 7.15305 14.6762 7.15305Z" fill="#EAA895"/>
<path d="M14.3715 7.27563C14.3212 7.27563 14.2804 7.31643 14.2804 7.36674C14.2804 7.41705 14.3212 7.45784 14.3715 7.45784C14.4218 7.45784 14.4626 7.41705 14.4626 7.36674C14.4626 7.31643 14.4218 7.27563 14.3715 7.27563Z" fill="#EAA895"/>
<path d="M14.6762 7.55823C14.6259 7.55823 14.5851 7.59902 14.5851 7.64933C14.5851 7.69967 14.6259 7.74044 14.6762 7.74044C14.7265 7.74044 14.7673 7.69964 14.7673 7.64933C14.7673 7.59902 14.7265 7.55823 14.6762 7.55823Z" fill="#EAA895"/>
<path d="M14.3715 7.86292C14.3212 7.86292 14.2804 7.90371 14.2804 7.95402C14.2804 8.00433 14.3212 8.04512 14.3715 8.04512C14.4218 8.04512 14.4626 8.00433 14.4626 7.95402C14.4626 7.90371 14.4218 7.86292 14.3715 7.86292Z" fill="#EAA895"/>
<path d="M14.6762 8.14563C14.6259 8.14563 14.5851 8.18642 14.5851 8.23673C14.5851 8.28707 14.6259 8.32784 14.6762 8.32784C14.7265 8.32784 14.7673 8.28704 14.7673 8.23673C14.7673 8.18642 14.7265 8.14563 14.6762 8.14563Z" fill="#EAA895"/>
<path d="M14.3715 8.45044C14.3212 8.45044 14.2804 8.49123 14.2804 8.54154C14.2804 8.59186 14.3212 8.63265 14.3715 8.63265C14.4218 8.63265 14.4626 8.59186 14.4626 8.54154C14.4626 8.49123 14.4218 8.45044 14.3715 8.45044Z" fill="#EAA895"/>
<path d="M14.6762 8.73303C14.6259 8.73303 14.5851 8.77383 14.5851 8.82414C14.5851 8.87448 14.6259 8.91524 14.6762 8.91524C14.7123 8.91524 14.7432 8.8941 14.758 8.86364C14.7608 8.8484 14.7639 8.83327 14.7667 8.81803C14.7635 8.77063 14.7244 8.73303 14.6762 8.73303Z" fill="#EAA895"/>
<path d="M14.3715 9.03772C14.3212 9.03772 14.2804 9.07851 14.2804 9.12882C14.2804 9.17913 14.3212 9.21993 14.3715 9.21993C14.4218 9.21993 14.4626 9.17913 14.4626 9.12882C14.4626 9.07851 14.4218 9.03772 14.3715 9.03772Z" fill="#EAA895"/>
<path d="M14.5851 9.41147C14.5851 9.43837 14.5969 9.46227 14.6155 9.47896C14.6299 9.42697 14.6439 9.37484 14.6572 9.32239C14.616 9.33111 14.5851 9.36765 14.5851 9.41147Z" fill="#EAA895"/>
<path d="M14.3715 9.62512C14.3212 9.62512 14.2804 9.66592 14.2804 9.71623C14.2804 9.76654 14.3212 9.80733 14.3715 9.80733C14.4218 9.80733 14.4626 9.76654 14.4626 9.71623C14.4626 9.66592 14.4218 9.62512 14.3715 9.62512Z" fill="#EAA895"/>
<path d="M14.2804 10.3037C14.2804 10.3286 14.2904 10.3511 14.3066 10.3676C14.3283 10.3163 14.3494 10.2647 14.3699 10.2128C14.3203 10.2136 14.2804 10.2539 14.2804 10.3037Z" fill="#EAA895"/>
<path d="M14.0888 7.15305C14.1295 7.15305 14.1636 7.12612 14.1753 7.08923H14.0023C14.014 7.12612 14.0481 7.15305 14.0888 7.15305Z" fill="#EAA895"/>
<path d="M13.7841 7.27563C13.7338 7.27563 13.693 7.31643 13.693 7.36674C13.693 7.41705 13.7338 7.45784 13.7841 7.45784C13.8344 7.45784 13.8752 7.41705 13.8752 7.36674C13.8752 7.31643 13.8344 7.27563 13.7841 7.27563Z" fill="#EAA895"/>
<path d="M14.0888 7.55823C14.0385 7.55823 13.9977 7.59902 13.9977 7.64933C13.9977 7.69967 14.0385 7.74044 14.0888 7.74044C14.1391 7.74044 14.1799 7.69964 14.1799 7.64933C14.1799 7.59902 14.1391 7.55823 14.0888 7.55823Z" fill="#EAA895"/>
<path d="M13.7841 7.86292C13.7338 7.86292 13.693 7.90371 13.693 7.95402C13.693 8.00433 13.7338 8.04512 13.7841 8.04512C13.8344 8.04512 13.8752 8.00433 13.8752 7.95402C13.8752 7.90371 13.8344 7.86292 13.7841 7.86292Z" fill="#EAA895"/>
<path d="M14.0888 8.14563C14.0385 8.14563 13.9977 8.18642 13.9977 8.23673C13.9977 8.28707 14.0385 8.32784 14.0888 8.32784C14.1391 8.32784 14.1799 8.28704 14.1799 8.23673C14.1799 8.18642 14.1391 8.14563 14.0888 8.14563Z" fill="#EAA895"/>
<path d="M13.7841 8.45044C13.7338 8.45044 13.693 8.49123 13.693 8.54154C13.693 8.59186 13.7338 8.63265 13.7841 8.63265C13.8344 8.63265 13.8752 8.59186 13.8752 8.54154C13.8752 8.49123 13.8344 8.45044 13.7841 8.45044Z" fill="#EAA895"/>
<path d="M14.0888 8.73303C14.0385 8.73303 13.9977 8.77383 13.9977 8.82414C13.9977 8.87448 14.0385 8.91524 14.0888 8.91524C14.1391 8.91524 14.1799 8.87445 14.1799 8.82414C14.1799 8.77383 14.1391 8.73303 14.0888 8.73303Z" fill="#EAA895"/>
<path d="M13.7841 9.03772C13.7338 9.03772 13.693 9.07851 13.693 9.12882C13.693 9.17913 13.7338 9.21993 13.7841 9.21993C13.8344 9.21993 13.8752 9.17913 13.8752 9.12882C13.8752 9.07851 13.8344 9.03772 13.7841 9.03772Z" fill="#EAA895"/>
<path d="M14.0888 9.32043C14.0385 9.32043 13.9977 9.36123 13.9977 9.41154C13.9977 9.46188 14.0385 9.50264 14.0888 9.50264C14.1391 9.50264 14.1799 9.46185 14.1799 9.41154C14.1799 9.36123 14.1391 9.32043 14.0888 9.32043Z" fill="#EAA895"/>
<path d="M13.7841 9.62512C13.7338 9.62512 13.693 9.66592 13.693 9.71623C13.693 9.76654 13.7338 9.80733 13.7841 9.80733C13.8344 9.80733 13.8752 9.76654 13.8752 9.71623C13.8752 9.66592 13.8344 9.62512 13.7841 9.62512Z" fill="#EAA895"/>
<path d="M14.0888 9.90784C14.0385 9.90784 13.9977 9.94863 13.9977 9.99894C13.9977 10.0493 14.0385 10.09 14.0888 10.09C14.1391 10.09 14.1799 10.0493 14.1799 9.99894C14.1799 9.94863 14.1391 9.90784 14.0888 9.90784Z" fill="#EAA895"/>
<path d="M13.7841 10.2125C13.7338 10.2125 13.693 10.2533 13.693 10.3036C13.693 10.3539 13.7338 10.3947 13.7841 10.3947C13.8344 10.3947 13.8752 10.3539 13.8752 10.3036C13.8752 10.2533 13.8344 10.2125 13.7841 10.2125Z" fill="#EAA895"/>
<path d="M14.0888 10.4952C14.0385 10.4952 13.9977 10.536 13.9977 10.5863C13.9977 10.6367 14.0385 10.6775 14.0888 10.6775C14.1391 10.6775 14.1799 10.6367 14.1799 10.5863C14.1799 10.536 14.1391 10.4952 14.0888 10.4952Z" fill="#EAA895"/>
<path d="M13.7841 10.7999C13.7338 10.7999 13.693 10.8407 13.693 10.891C13.693 10.9413 13.7338 10.9821 13.7841 10.9821C13.8344 10.9821 13.8752 10.9413 13.8752 10.891C13.8752 10.8407 13.8344 10.7999 13.7841 10.7999Z" fill="#EAA895"/>
<path d="M13.693 11.4785C13.693 11.4904 13.6954 11.5017 13.6996 11.5122C13.7263 11.4711 13.7524 11.4296 13.7783 11.3879C13.7307 11.391 13.693 11.4301 13.693 11.4785Z" fill="#EAA895"/>
<path d="M13.5925 7.64933C13.5925 7.60674 13.5632 7.57124 13.5237 7.56128C13.5107 7.6206 13.4971 7.6797 13.4828 7.73852C13.4888 7.73975 13.495 7.74046 13.5014 7.74046C13.5517 7.74043 13.5925 7.69967 13.5925 7.64933Z" fill="#EAA895"/>
<path d="M13.5014 8.14563C13.4511 8.14563 13.4103 8.18642 13.4103 8.23673C13.4103 8.28707 13.4511 8.32784 13.5014 8.32784C13.5517 8.32784 13.5925 8.28704 13.5925 8.23673C13.5925 8.18642 13.5517 8.14563 13.5014 8.14563Z" fill="#EAA895"/>
<path d="M13.2878 8.54149C13.2878 8.51699 13.2781 8.4949 13.2624 8.47852C13.2442 8.5298 13.2256 8.58084 13.2064 8.63159C13.2521 8.62672 13.2878 8.58848 13.2878 8.54149Z" fill="#EAA895"/>
<path d="M13.5014 8.73303C13.4511 8.73303 13.4103 8.77383 13.4103 8.82414C13.4103 8.87448 13.4511 8.91524 13.5014 8.91524C13.5517 8.91524 13.5925 8.87445 13.5925 8.82414C13.5925 8.77383 13.5517 8.73303 13.5014 8.73303Z" fill="#EAA895"/>
<path d="M13.1967 9.03772C13.1464 9.03772 13.1056 9.07851 13.1056 9.12882C13.1056 9.17913 13.1464 9.21993 13.1967 9.21993C13.247 9.21993 13.2878 9.17913 13.2878 9.12882C13.2878 9.07851 13.247 9.03772 13.1967 9.03772Z" fill="#EAA895"/>
<path d="M13.5014 9.32043C13.4511 9.32043 13.4103 9.36123 13.4103 9.41154C13.4103 9.46188 13.4511 9.50264 13.5014 9.50264C13.5517 9.50264 13.5925 9.46185 13.5925 9.41154C13.5925 9.36123 13.5517 9.32043 13.5014 9.32043Z" fill="#EAA895"/>
<path d="M13.1967 9.62512C13.1464 9.62512 13.1056 9.66592 13.1056 9.71623C13.1056 9.76654 13.1464 9.80733 13.1967 9.80733C13.247 9.80733 13.2878 9.76654 13.2878 9.71623C13.2878 9.66592 13.247 9.62512 13.1967 9.62512Z" fill="#EAA895"/>
<path d="M13.5014 9.90784C13.4511 9.90784 13.4103 9.94863 13.4103 9.99894C13.4103 10.0493 13.4511 10.09 13.5014 10.09C13.5517 10.09 13.5925 10.0493 13.5925 9.99894C13.5925 9.94863 13.5517 9.90784 13.5014 9.90784Z" fill="#EAA895"/>
<path d="M13.1967 10.2125C13.1464 10.2125 13.1056 10.2533 13.1056 10.3036C13.1056 10.3539 13.1464 10.3947 13.1967 10.3947C13.247 10.3947 13.2878 10.3539 13.2878 10.3036C13.2878 10.2533 13.247 10.2125 13.1967 10.2125Z" fill="#EAA895"/>
<path d="M13.5014 10.4952C13.4511 10.4952 13.4103 10.536 13.4103 10.5863C13.4103 10.6367 13.4511 10.6775 13.5014 10.6775C13.5517 10.6775 13.5925 10.6367 13.5925 10.5863C13.5925 10.536 13.5517 10.4952 13.5014 10.4952Z" fill="#EAA895"/>
<path d="M13.1967 10.7999C13.1464 10.7999 13.1056 10.8407 13.1056 10.891C13.1056 10.9413 13.1464 10.9821 13.1967 10.9821C13.247 10.9821 13.2878 10.9413 13.2878 10.891C13.2878 10.8407 13.247 10.7999 13.1967 10.7999Z" fill="#EAA895"/>
<path d="M13.5014 11.0826C13.4511 11.0826 13.4103 11.1234 13.4103 11.1737C13.4103 11.2241 13.4511 11.2649 13.5014 11.2649C13.5517 11.2649 13.5925 11.2241 13.5925 11.1737C13.5925 11.1234 13.5517 11.0826 13.5014 11.0826Z" fill="#EAA895"/>
<path d="M13.1967 11.3873C13.1464 11.3873 13.1056 11.4281 13.1056 11.4784C13.1056 11.5287 13.1464 11.5695 13.1967 11.5695C13.247 11.5695 13.2878 11.5287 13.2878 11.4784C13.2878 11.4281 13.247 11.3873 13.1967 11.3873Z" fill="#EAA895"/>
<path d="M13.5014 11.67C13.4511 11.67 13.4103 11.7108 13.4103 11.7611C13.4103 11.8002 13.435 11.8333 13.4695 11.8462C13.504 11.799 13.5379 11.7513 13.5712 11.7032C13.5545 11.6831 13.5296 11.67 13.5014 11.67Z" fill="#EAA895"/>
<path d="M13.1967 11.9747C13.1464 11.9747 13.1056 12.0155 13.1056 12.0658C13.1056 12.1161 13.1464 12.1569 13.1967 12.1569C13.212 12.1569 13.2262 12.1528 13.2388 12.1462C13.254 12.1274 13.2692 12.1087 13.2842 12.0898C13.2863 12.0821 13.2878 12.0742 13.2878 12.0658C13.2878 12.0155 13.247 11.9747 13.1967 11.9747Z" fill="#EAA895"/>
<path d="M12.914 9.50264C12.9643 9.50264 13.0051 9.46185 13.0051 9.41154C13.0051 9.36123 12.9643 9.32043 12.914 9.32043C12.9114 9.32043 12.9089 9.32099 12.9063 9.32123C12.8834 9.36734 12.8601 9.41318 12.8364 9.45877C12.8525 9.48496 12.8811 9.50264 12.914 9.50264Z" fill="#EAA895"/>
<path d="M12.7004 9.71634C12.7004 9.71426 12.6999 9.71229 12.6998 9.71021C12.6832 9.73946 12.6665 9.76868 12.6495 9.7977C12.6796 9.78278 12.7004 9.75211 12.7004 9.71634Z" fill="#EAA895"/>
<path d="M12.9141 9.90784C12.8638 9.90784 12.823 9.94863 12.823 9.99894C12.823 10.0493 12.8638 10.09 12.9141 10.09C12.9644 10.09 13.0052 10.0493 13.0052 9.99894C13.0052 9.94863 12.9644 9.90784 12.9141 9.90784Z" fill="#EAA895"/>
<path d="M12.6093 10.2125C12.559 10.2125 12.5182 10.2533 12.5182 10.3036C12.5182 10.3539 12.559 10.3947 12.6093 10.3947C12.6596 10.3947 12.7004 10.3539 12.7004 10.3036C12.7004 10.2533 12.6596 10.2125 12.6093 10.2125Z" fill="#EAA895"/>
<path d="M12.9141 10.4952C12.8638 10.4952 12.823 10.536 12.823 10.5863C12.823 10.6367 12.8638 10.6775 12.9141 10.6775C12.9644 10.6775 13.0052 10.6367 13.0052 10.5863C13.0052 10.536 12.9644 10.4952 12.9141 10.4952Z" fill="#EAA895"/>
<path d="M12.6093 10.7999C12.559 10.7999 12.5182 10.8407 12.5182 10.891C12.5182 10.9413 12.559 10.9821 12.6093 10.9821C12.6596 10.9821 12.7004 10.9413 12.7004 10.891C12.7004 10.8407 12.6596 10.7999 12.6093 10.7999Z" fill="#EAA895"/>
<path d="M12.9141 11.0826C12.8638 11.0826 12.823 11.1234 12.823 11.1737C12.823 11.2241 12.8638 11.2649 12.9141 11.2649C12.9644 11.2649 13.0052 11.2241 13.0052 11.1737C13.0052 11.1234 12.9644 11.0826 12.9141 11.0826Z" fill="#EAA895"/>
<path d="M12.6093 11.3873C12.559 11.3873 12.5182 11.4281 12.5182 11.4784C12.5182 11.5287 12.559 11.5695 12.6093 11.5695C12.6596 11.5695 12.7004 11.5287 12.7004 11.4784C12.7004 11.4281 12.6596 11.3873 12.6093 11.3873Z" fill="#EAA895"/>
<path d="M12.9141 11.67C12.8638 11.67 12.823 11.7108 12.823 11.7611C12.823 11.8115 12.8638 11.8523 12.9141 11.8523C12.9644 11.8523 13.0052 11.8115 13.0052 11.7611C13.0052 11.7108 12.9644 11.67 12.9141 11.67Z" fill="#EAA895"/>
<path d="M12.6093 11.9747C12.559 11.9747 12.5182 12.0155 12.5182 12.0658C12.5182 12.1161 12.559 12.1569 12.6093 12.1569C12.6596 12.1569 12.7004 12.1161 12.7004 12.0658C12.7004 12.0155 12.6596 11.9747 12.6093 11.9747Z" fill="#EAA895"/>
<path d="M12.9141 12.4395C12.9644 12.4395 13.0052 12.3987 13.0052 12.3484C13.0052 12.2981 12.9644 12.2573 12.9141 12.2573C12.8638 12.2573 12.823 12.2981 12.823 12.3484C12.823 12.3988 12.8638 12.4395 12.9141 12.4395Z" fill="#EAA895"/>
<path d="M12.6093 12.5621C12.559 12.5621 12.5182 12.6029 12.5182 12.6532C12.5165 12.7715 12.7022 12.7714 12.7004 12.6532C12.7004 12.6029 12.6596 12.5621 12.6093 12.5621Z" fill="#EAA895"/>
<path d="M12.3267 10.4952C12.2764 10.4952 12.2356 10.536 12.2356 10.5863C12.2356 10.6367 12.2764 10.6775 12.3267 10.6775C12.377 10.6775 12.4178 10.6367 12.4178 10.5863C12.4178 10.536 12.377 10.4952 12.3267 10.4952Z" fill="#EAA895"/>
<path d="M12.0219 10.7999C11.9716 10.7999 11.9308 10.8407 11.9308 10.891C11.9308 10.9413 11.9716 10.9821 12.0219 10.9821C12.0722 10.9821 12.113 10.9413 12.113 10.891C12.113 10.8407 12.0722 10.7999 12.0219 10.7999Z" fill="#EAA895"/>
<path d="M12.3267 11.0826C12.2764 11.0826 12.2356 11.1234 12.2356 11.1737C12.2356 11.2241 12.2764 11.2649 12.3267 11.2649C12.377 11.2649 12.4178 11.2241 12.4178 11.1737C12.4178 11.1234 12.377 11.0826 12.3267 11.0826Z" fill="#EAA895"/>
<path d="M12.0219 11.3873C11.9716 11.3873 11.9308 11.4281 11.9308 11.4784C11.9308 11.5287 11.9716 11.5695 12.0219 11.5695C12.0722 11.5695 12.113 11.5287 12.113 11.4784C12.113 11.4281 12.0722 11.3873 12.0219 11.3873Z" fill="#EAA895"/>
<path d="M12.3267 11.67C12.2764 11.67 12.2356 11.7108 12.2356 11.7611C12.2356 11.8115 12.2764 11.8523 12.3267 11.8523C12.377 11.8523 12.4178 11.8115 12.4178 11.7611C12.4178 11.7108 12.377 11.67 12.3267 11.67Z" fill="#EAA895"/>
<path d="M12.0219 11.9747C11.9716 11.9747 11.9308 12.0155 11.9308 12.0658C11.9308 12.1161 11.9716 12.1569 12.0219 12.1569C12.0722 12.1569 12.113 12.1161 12.113 12.0658C12.113 12.0155 12.0722 11.9747 12.0219 11.9747Z" fill="#EAA895"/>
<path d="M12.3267 12.2573C12.2764 12.2573 12.2356 12.2981 12.2356 12.3484C12.2356 12.3988 12.2764 12.4395 12.3267 12.4395C12.377 12.4395 12.4178 12.3987 12.4178 12.3484C12.4178 12.2981 12.377 12.2573 12.3267 12.2573Z" fill="#EAA895"/>
<path d="M12.0219 12.5621C11.9716 12.5621 11.9308 12.6029 11.9308 12.6532C11.9308 12.7035 11.9716 12.7443 12.0219 12.7443C12.0722 12.7443 12.113 12.7035 12.113 12.6532C12.113 12.6029 12.0722 12.5621 12.0219 12.5621Z" fill="#EAA895"/>
<path d="M12.3267 12.8448C12.2764 12.8448 12.2356 12.8856 12.2356 12.936C12.2356 12.9863 12.2764 13.0271 12.3267 13.0271C12.377 13.0271 12.4178 12.9863 12.4178 12.936C12.4178 12.8856 12.377 12.8448 12.3267 12.8448Z" fill="#EAA895"/>
<path d="M12.0219 13.1495C11.9716 13.1495 11.9308 13.1903 11.9308 13.2406C11.9308 13.291 11.9716 13.3317 12.0219 13.3317C12.0248 13.3317 12.0276 13.3312 12.0305 13.3309C12.0564 13.3107 12.0822 13.2902 12.1078 13.2697C12.1109 13.2605 12.113 13.2509 12.113 13.2407C12.113 13.1903 12.0722 13.1495 12.0219 13.1495Z" fill="#EAA895"/>
<path d="M11.7393 11.2649C11.7896 11.2649 11.8304 11.2241 11.8304 11.1737C11.8304 11.1234 11.7896 11.0826 11.7393 11.0826C11.7231 11.0826 11.7081 11.0872 11.6949 11.0947C11.6818 11.109 11.6688 11.1235 11.6556 11.1378C11.6509 11.1488 11.6482 11.1609 11.6482 11.1737C11.6482 11.2241 11.689 11.2649 11.7393 11.2649Z" fill="#EAA895"/>
<path d="M11.4345 11.5697C11.4848 11.5697 11.5256 11.5289 11.5256 11.4786C11.5256 11.4282 11.4848 11.3875 11.4345 11.3875C11.4263 11.3875 11.4185 11.3889 11.4109 11.3909C11.3901 11.4115 11.3688 11.4317 11.3477 11.4521C11.3451 11.4606 11.3434 11.4693 11.3434 11.4786C11.3434 11.5289 11.3842 11.5697 11.4345 11.5697Z" fill="#EAA895"/>
<path d="M11.7393 11.67C11.689 11.67 11.6482 11.7108 11.6482 11.7611C11.6482 11.8115 11.689 11.8523 11.7393 11.8523C11.7896 11.8523 11.8304 11.8115 11.8304 11.7611C11.8304 11.7108 11.7896 11.67 11.7393 11.67Z" fill="#EAA895"/>
<path d="M11.4345 11.9747C11.3842 11.9747 11.3434 12.0155 11.3434 12.0658C11.3434 12.1161 11.3842 12.1569 11.4345 12.1569C11.4848 12.1569 11.5256 12.1161 11.5256 12.0658C11.5256 12.0155 11.4848 11.9747 11.4345 11.9747Z" fill="#EAA895"/>
<path d="M11.7393 12.2573C11.689 12.2573 11.6482 12.2981 11.6482 12.3484C11.6482 12.3988 11.689 12.4395 11.7393 12.4395C11.7896 12.4395 11.8304 12.3987 11.8304 12.3484C11.8304 12.2981 11.7896 12.2573 11.7393 12.2573Z" fill="#EAA895"/>
<path d="M11.4345 12.5621C11.3842 12.5621 11.3434 12.6029 11.3434 12.6532C11.3434 12.7035 11.3842 12.7443 11.4345 12.7443C11.4848 12.7443 11.5256 12.7035 11.5256 12.6532C11.5256 12.6029 11.4848 12.5621 11.4345 12.5621Z" fill="#EAA895"/>
<path d="M11.7393 12.8448C11.689 12.8448 11.6482 12.8856 11.6482 12.936C11.6482 12.9863 11.689 13.0271 11.7393 13.0271C11.7896 13.0271 11.8304 12.9863 11.8304 12.936C11.8304 12.8856 11.7896 12.8448 11.7393 12.8448Z" fill="#EAA895"/>
<path d="M11.4345 13.1495C11.3842 13.1495 11.3434 13.1903 11.3434 13.2406C11.3434 13.291 11.3842 13.3317 11.4345 13.3317C11.4848 13.3317 11.5256 13.291 11.5256 13.2406C11.5256 13.1903 11.4848 13.1495 11.4345 13.1495Z" fill="#EAA895"/>
<path d="M11.7393 13.4321C11.689 13.4321 11.6482 13.4729 11.6482 13.5232C11.6482 13.5494 11.6593 13.5728 11.6769 13.5894C11.7259 13.5557 11.7745 13.5215 11.8227 13.4866C11.8086 13.4546 11.7766 13.4321 11.7393 13.4321Z" fill="#EAA895"/>
<path d="M11.3472 13.8037C11.3821 13.7823 11.4168 13.7606 11.4514 13.7386C11.4459 13.7376 11.4403 13.7369 11.4346 13.7369C11.3927 13.7369 11.3579 13.7653 11.3472 13.8037Z" fill="#EAA895"/>
<path d="M11.1519 11.67C11.1016 11.67 11.0608 11.7108 11.0608 11.7611C11.0608 11.8115 11.1016 11.8523 11.1519 11.8523C11.2022 11.8523 11.243 11.8115 11.243 11.7611C11.243 11.7108 11.2022 11.67 11.1519 11.67Z" fill="#EAA895"/>
<path d="M10.8471 11.9747C10.7968 11.9747 10.756 12.0155 10.756 12.0658C10.756 12.1161 10.7968 12.1569 10.8471 12.1569C10.8974 12.1569 10.9382 12.1161 10.9382 12.0658C10.9382 12.0155 10.8974 11.9747 10.8471 11.9747Z" fill="#EAA895"/>
<path d="M11.1519 12.2573C11.1016 12.2573 11.0608 12.2981 11.0608 12.3484C11.0608 12.3988 11.1016 12.4395 11.1519 12.4395C11.2022 12.4395 11.243 12.3987 11.243 12.3484C11.243 12.2981 11.2022 12.2573 11.1519 12.2573Z" fill="#EAA895"/>
<path d="M10.8471 12.5621C10.7968 12.5621 10.756 12.6029 10.756 12.6532C10.756 12.7035 10.7968 12.7443 10.8471 12.7443C10.8974 12.7443 10.9382 12.7035 10.9382 12.6532C10.9382 12.6029 10.8974 12.5621 10.8471 12.5621Z" fill="#EAA895"/>
<path d="M11.1519 12.8448C11.1016 12.8448 11.0608 12.8856 11.0608 12.936C11.0608 12.9863 11.1016 13.0271 11.1519 13.0271C11.2022 13.0271 11.243 12.9863 11.243 12.936C11.243 12.8856 11.2022 12.8448 11.1519 12.8448Z" fill="#EAA895"/>
<path d="M10.8471 13.1495C10.7968 13.1495 10.756 13.1903 10.756 13.2406C10.756 13.291 10.7968 13.3317 10.8471 13.3317C10.8974 13.3317 10.9382 13.291 10.9382 13.2406C10.9382 13.1903 10.8974 13.1495 10.8471 13.1495Z" fill="#EAA895"/>
<path d="M11.1519 13.4321C11.1016 13.4321 11.0608 13.4729 11.0608 13.5232C11.0608 13.5736 11.1016 13.6143 11.1519 13.6143C11.2022 13.6143 11.243 13.5735 11.243 13.5232C11.243 13.4729 11.2022 13.4321 11.1519 13.4321Z" fill="#EAA895"/>
<path d="M10.8471 13.7369C10.7968 13.7369 10.756 13.7777 10.756 13.828C10.756 13.8784 10.7968 13.9191 10.8471 13.9191C10.8974 13.9191 10.9382 13.8784 10.9382 13.828C10.9382 13.7777 10.8974 13.7369 10.8471 13.7369Z" fill="#EAA895"/>
<path d="M10.5645 12.2573C10.5142 12.2573 10.4734 12.2981 10.4734 12.3484C10.4734 12.3988 10.5142 12.4395 10.5645 12.4395C10.6148 12.4395 10.6556 12.3987 10.6556 12.3484C10.6556 12.2981 10.6148 12.2573 10.5645 12.2573Z" fill="#EAA895"/>
<path d="M10.2597 12.5621C10.2094 12.5621 10.1686 12.6029 10.1686 12.6532C10.1686 12.7035 10.2094 12.7443 10.2597 12.7443C10.31 12.7443 10.3508 12.7035 10.3508 12.6532C10.3508 12.6029 10.31 12.5621 10.2597 12.5621Z" fill="#EAA895"/>
<path d="M10.5645 12.8448C10.5142 12.8448 10.4734 12.8856 10.4734 12.936C10.4734 12.9863 10.5142 13.0271 10.5645 13.0271C10.6148 13.0271 10.6556 12.9863 10.6556 12.936C10.6556 12.8856 10.6148 12.8448 10.5645 12.8448Z" fill="#EAA895"/>
<path d="M10.2597 13.1495C10.2094 13.1495 10.1686 13.1903 10.1686 13.2406C10.1686 13.291 10.2094 13.3317 10.2597 13.3317C10.31 13.3317 10.3508 13.291 10.3508 13.2406C10.3508 13.1903 10.31 13.1495 10.2597 13.1495Z" fill="#EAA895"/>
<path d="M10.5645 13.4321C10.5142 13.4321 10.4734 13.4729 10.4734 13.5232C10.4734 13.5736 10.5142 13.6143 10.5645 13.6143C10.6148 13.6143 10.6556 13.5735 10.6556 13.5232C10.6556 13.4729 10.6148 13.4321 10.5645 13.4321Z" fill="#EAA895"/>
<path d="M10.2597 13.7369C10.2094 13.7369 10.1686 13.7777 10.1686 13.828C10.1686 13.8784 10.2094 13.9191 10.2597 13.9191C10.31 13.9191 10.3508 13.8784 10.3508 13.828C10.3508 13.7777 10.31 13.7369 10.2597 13.7369Z" fill="#EAA895"/>
<path d="M10.5645 14.0195C10.5142 14.0195 10.4734 14.0603 10.4734 14.1106C10.4734 14.161 10.5142 14.2017 10.5645 14.2017C10.6148 14.2017 10.6556 14.1609 10.6556 14.1106C10.6556 14.0603 10.6148 14.0195 10.5645 14.0195Z" fill="#EAA895"/>
<path d="M10.1744 14.3845C10.2165 14.3681 10.2583 14.3512 10.3001 14.3341C10.2879 14.3281 10.2743 14.3243 10.2598 14.3243C10.2204 14.3243 10.1872 14.3495 10.1744 14.3845Z" fill="#EAA895"/>
<path d="M9.67235 12.7443C9.72266 12.7443 9.76346 12.7035 9.76346 12.6532C9.76346 12.6462 9.76249 12.6395 9.76102 12.6329C9.71012 12.6615 9.65887 12.6894 9.6073 12.7169C9.62383 12.7338 9.64683 12.7443 9.67235 12.7443Z" fill="#EAA895"/>
<path d="M9.97709 12.8448C9.92678 12.8448 9.88599 12.8856 9.88599 12.936C9.88599 12.9863 9.92678 13.0271 9.97709 13.0271C10.0274 13.0271 10.0682 12.9863 10.0682 12.936C10.0682 12.8856 10.0274 12.8448 9.97709 12.8448Z" fill="#EAA895"/>
<path d="M9.6724 13.1495C9.62209 13.1495 9.5813 13.1903 9.5813 13.2406C9.5813 13.291 9.62209 13.3317 9.6724 13.3317C9.72271 13.3317 9.76351 13.291 9.76351 13.2406C9.76351 13.1903 9.72271 13.1495 9.6724 13.1495Z" fill="#EAA895"/>
<path d="M9.97709 13.4321C9.92678 13.4321 9.88599 13.4729 9.88599 13.5232C9.88599 13.5736 9.92678 13.6143 9.97709 13.6143C10.0274 13.6143 10.0682 13.5735 10.0682 13.5232C10.0682 13.4729 10.0274 13.4321 9.97709 13.4321Z" fill="#EAA895"/>
<path d="M9.6724 13.7369C9.62209 13.7369 9.5813 13.7777 9.5813 13.828C9.5813 13.8784 9.62209 13.9191 9.6724 13.9191C9.72271 13.9191 9.76351 13.8784 9.76351 13.828C9.76351 13.7777 9.72271 13.7369 9.6724 13.7369Z" fill="#EAA895"/>
<path d="M9.97709 14.0195C9.92678 14.0195 9.88599 14.0603 9.88599 14.1106C9.88599 14.161 9.92678 14.2017 9.97709 14.2017C10.0274 14.2017 10.0682 14.1609 10.0682 14.1106C10.0682 14.0603 10.0274 14.0195 9.97709 14.0195Z" fill="#EAA895"/>
<path d="M9.6724 14.3243C9.62209 14.3243 9.5813 14.3651 9.5813 14.4154C9.5813 14.4658 9.62209 14.5066 9.6724 14.5066C9.72271 14.5066 9.76351 14.4658 9.76351 14.4154C9.76351 14.3651 9.72271 14.3243 9.6724 14.3243Z" fill="#EAA895"/>
<path d="M9.38969 12.8448C9.33938 12.8448 9.29858 12.8856 9.29858 12.936C9.29858 12.9863 9.33938 13.0271 9.38969 13.0271C9.44 13.0271 9.48079 12.9863 9.48079 12.936C9.48082 12.8856 9.44003 12.8448 9.38969 12.8448Z" fill="#EAA895"/>
<path d="M9.08488 13.1495C9.03457 13.1495 8.99377 13.1903 8.99377 13.2406C8.99377 13.291 9.03457 13.3317 9.08488 13.3317C9.13519 13.3317 9.17598 13.291 9.17598 13.2406C9.17598 13.1903 9.13519 13.1495 9.08488 13.1495Z" fill="#EAA895"/>
<path d="M9.38969 13.4321C9.33938 13.4321 9.29858 13.4729 9.29858 13.5232C9.29858 13.5736 9.33938 13.6143 9.38969 13.6143C9.44 13.6143 9.48079 13.5735 9.48079 13.5232C9.48082 13.4729 9.44003 13.4321 9.38969 13.4321Z" fill="#EAA895"/>
<path d="M9.08488 13.7369C9.03457 13.7369 8.99377 13.7777 8.99377 13.828C8.99377 13.8784 9.03457 13.9191 9.08488 13.9191C9.13519 13.9191 9.17598 13.8784 9.17598 13.828C9.17598 13.7777 9.13519 13.7369 9.08488 13.7369Z" fill="#EAA895"/>
<path d="M9.38969 14.0195C9.33938 14.0195 9.29858 14.0603 9.29858 14.1106C9.29858 14.161 9.33938 14.2017 9.38969 14.2017C9.44 14.2017 9.48079 14.1609 9.48079 14.1106C9.48082 14.0603 9.44003 14.0195 9.38969 14.0195Z" fill="#EAA895"/>
<path d="M9.08488 14.3243C9.03457 14.3243 8.99377 14.3651 8.99377 14.4154C8.99377 14.4658 9.03457 14.5066 9.08488 14.5066C9.13519 14.5066 9.17598 14.4658 9.17598 14.4154C9.17598 14.3651 9.13519 14.3243 9.08488 14.3243Z" fill="#EAA895"/>
<path d="M9.38973 14.6069C9.35263 14.6069 9.32086 14.6292 9.30664 14.661C9.35252 14.6494 9.39813 14.6373 9.44365 14.6249C9.42852 14.6138 9.40999 14.6069 9.38973 14.6069Z" fill="#EAA895"/>
<path d="M8.4976 13.3318C8.54791 13.3318 8.58871 13.291 8.58871 13.2407C8.58871 13.2157 8.57857 13.193 8.56221 13.1765C8.51093 13.1946 8.45942 13.2123 8.40764 13.2293C8.40717 13.2331 8.40649 13.2368 8.40649 13.2407C8.40649 13.291 8.44729 13.3318 8.4976 13.3318Z" fill="#EAA895"/>
<path d="M8.80229 13.4321C8.75198 13.4321 8.71118 13.4729 8.71118 13.5232C8.71118 13.5736 8.75198 13.6143 8.80229 13.6143C8.8526 13.6143 8.89339 13.5735 8.89339 13.5232C8.89342 13.4729 8.85263 13.4321 8.80229 13.4321Z" fill="#EAA895"/>
<path d="M8.4976 13.7369C8.44729 13.7369 8.40649 13.7777 8.40649 13.828C8.40649 13.8784 8.44729 13.9191 8.4976 13.9191C8.54791 13.9191 8.58871 13.8784 8.58871 13.828C8.58871 13.7777 8.54791 13.7369 8.4976 13.7369Z" fill="#EAA895"/>
<path d="M8.80229 14.0195C8.75198 14.0195 8.71118 14.0603 8.71118 14.1106C8.71118 14.161 8.75198 14.2017 8.80229 14.2017C8.8526 14.2017 8.89339 14.1609 8.89339 14.1106C8.89342 14.0603 8.85263 14.0195 8.80229 14.0195Z" fill="#EAA895"/>
<path d="M8.4976 14.3243C8.44729 14.3243 8.40649 14.3651 8.40649 14.4154C8.40649 14.4658 8.44729 14.5066 8.4976 14.5066C8.54791 14.5066 8.58871 14.4658 8.58871 14.4154C8.58871 14.3651 8.54791 14.3243 8.4976 14.3243Z" fill="#EAA895"/>
<path d="M8.89339 14.698C8.89339 14.6477 8.8526 14.6069 8.80229 14.6069C8.75198 14.6069 8.71118 14.6477 8.71118 14.698C8.71118 14.732 8.72992 14.7612 8.75741 14.7769C8.79568 14.7703 8.8338 14.7634 8.87186 14.7562C8.88508 14.7404 8.89339 14.7203 8.89339 14.698Z" fill="#EAA895"/>
<path d="M8.21488 13.4321C8.16457 13.4321 8.12378 13.4729 8.12378 13.5232C8.12378 13.5736 8.16457 13.6143 8.21488 13.6143C8.26519 13.6143 8.30599 13.5735 8.30599 13.5232C8.30601 13.4729 8.26522 13.4321 8.21488 13.4321Z" fill="#EAA895"/>
<path d="M7.9102 13.7369C7.85989 13.7369 7.81909 13.7777 7.81909 13.828C7.81909 13.8784 7.85989 13.9191 7.9102 13.9191C7.9605 13.9191 8.0013 13.8784 8.0013 13.828C8.0013 13.7777 7.9605 13.7369 7.9102 13.7369Z" fill="#EAA895"/>
<path d="M8.21488 14.0195C8.16457 14.0195 8.12378 14.0603 8.12378 14.1106C8.12378 14.161 8.16457 14.2017 8.21488 14.2017C8.26519 14.2017 8.30599 14.1609 8.30599 14.1106C8.30601 14.0603 8.26522 14.0195 8.21488 14.0195Z" fill="#EAA895"/>
<path d="M7.9102 14.3243C7.85989 14.3243 7.81909 14.3651 7.81909 14.4154C7.81909 14.4658 7.85989 14.5066 7.9102 14.5066C7.9605 14.5066 8.0013 14.4658 8.0013 14.4154C8.0013 14.3651 7.9605 14.3243 7.9102 14.3243Z" fill="#EAA895"/>
<path d="M8.21488 14.6069C8.16457 14.6069 8.12378 14.6477 8.12378 14.698C8.12378 14.7484 8.16457 14.7891 8.21488 14.7891C8.26519 14.7891 8.30599 14.7483 8.30599 14.698C8.30601 14.6477 8.26522 14.6069 8.21488 14.6069Z" fill="#EAA895"/>
<path d="M7.53638 13.5233C7.53638 13.5736 7.57717 13.6144 7.62748 13.6144C7.67779 13.6144 7.71858 13.5736 7.71858 13.5233C7.71858 13.481 7.68971 13.4459 7.65071 13.4355C7.62381 13.4414 7.59697 13.4476 7.56995 13.4532C7.54962 13.4699 7.53638 13.4949 7.53638 13.5233Z" fill="#EAA895"/>
<path d="M7.32279 13.7369C7.27248 13.7369 7.23169 13.7777 7.23169 13.828C7.23169 13.8784 7.27248 13.9191 7.32279 13.9191C7.3731 13.9191 7.4139 13.8784 7.4139 13.828C7.4139 13.7777 7.3731 13.7369 7.32279 13.7369Z" fill="#EAA895"/>
<path d="M7.62748 14.0195C7.57717 14.0195 7.53638 14.0603 7.53638 14.1106C7.53638 14.161 7.57717 14.2017 7.62748 14.2017C7.67779 14.2017 7.71858 14.1609 7.71858 14.1106C7.71861 14.0603 7.67782 14.0195 7.62748 14.0195Z" fill="#EAA895"/>
<path d="M7.4139 14.4154C7.4139 14.3651 7.3731 14.3243 7.32279 14.3243C7.27248 14.3243 7.23169 14.3651 7.23169 14.4154C7.23169 14.4658 7.27248 14.5065 7.32279 14.5065C7.3731 14.5065 7.4139 14.4658 7.4139 14.4154Z" fill="#EAA895"/>
<path d="M7.62748 14.7891C7.67779 14.7891 7.71858 14.7483 7.71858 14.698C7.71858 14.6477 7.67779 14.6069 7.62748 14.6069C7.57717 14.6069 7.53638 14.6477 7.53638 14.698C7.53638 14.7484 7.57717 14.7891 7.62748 14.7891Z" fill="#EAA895"/>
<path d="M7.0401 13.6143C7.08788 13.6143 7.12662 13.5775 7.13047 13.5306C7.07214 13.5392 7.0136 13.5472 6.95483 13.5545C6.96764 13.5893 7.00083 13.6143 7.0401 13.6143Z" fill="#EAA895"/>
<path d="M6.73539 13.7369C6.68508 13.7369 6.64429 13.7777 6.64429 13.828C6.64429 13.8784 6.68508 13.9191 6.73539 13.9191C6.7857 13.9191 6.8265 13.8784 6.8265 13.828C6.8265 13.7777 6.7857 13.7369 6.73539 13.7369Z" fill="#EAA895"/>
<path d="M7.04008 14.0195C6.98977 14.0195 6.94897 14.0603 6.94897 14.1106C6.94897 14.161 6.98977 14.2017 7.04008 14.2017C7.09039 14.2017 7.13119 14.1609 7.13119 14.1106C7.13121 14.0603 7.09042 14.0195 7.04008 14.0195Z" fill="#EAA895"/>
<path d="M6.73539 14.3243C6.68508 14.3243 6.64429 14.3651 6.64429 14.4154C6.64429 14.4658 6.68508 14.5066 6.73539 14.5066C6.7857 14.5066 6.8265 14.4658 6.8265 14.4154C6.8265 14.3651 6.7857 14.3243 6.73539 14.3243Z" fill="#EAA895"/>
<path d="M7.04008 14.6069C6.98977 14.6069 6.94897 14.6477 6.94897 14.698C6.94897 14.7484 6.98977 14.7891 7.04008 14.7891C7.09039 14.7891 7.13119 14.7483 7.13119 14.698C7.13121 14.6477 7.09042 14.6069 7.04008 14.6069Z" fill="#EAA895"/>
<path d="M6.50565 13.5973C6.47352 13.5994 6.44131 13.6011 6.40906 13.6028C6.4221 13.61 6.43684 13.6145 6.45276 13.6145C6.47252 13.6144 6.4907 13.608 6.50565 13.5973Z" fill="#EAA895"/>
<path d="M6.05688 13.828C6.05688 13.8784 6.09768 13.9191 6.14799 13.9191C6.1983 13.9191 6.23909 13.8784 6.23909 13.828C6.23909 13.7777 6.1983 13.7369 6.14799 13.7369C6.09768 13.7369 6.05688 13.7777 6.05688 13.828Z" fill="#EAA895"/>
<path d="M6.45268 14.0195C6.40237 14.0195 6.36157 14.0603 6.36157 14.1106C6.36157 14.161 6.40237 14.2017 6.45268 14.2017C6.50299 14.2017 6.54378 14.1609 6.54378 14.1106C6.54381 14.0603 6.50302 14.0195 6.45268 14.0195Z" fill="#EAA895"/>
<path d="M6.14799 14.5065C6.1983 14.5065 6.23909 14.4658 6.23909 14.4154C6.23909 14.3651 6.1983 14.3243 6.14799 14.3243C6.09768 14.3243 6.05688 14.3651 6.05688 14.4154C6.05688 14.4658 6.09768 14.5065 6.14799 14.5065Z" fill="#EAA895"/>
<path d="M6.45268 14.6069C6.40237 14.6069 6.36157 14.6477 6.36157 14.698C6.36157 14.7484 6.40237 14.7891 6.45268 14.7891C6.50299 14.7891 6.54378 14.7483 6.54378 14.698C6.54381 14.6477 6.50302 14.6069 6.45268 14.6069Z" fill="#EAA895"/>
<path d="M5.87855 13.6131C5.86798 13.613 5.8574 13.6128 5.8468 13.6125C5.85279 13.6138 5.85899 13.6145 5.86533 13.6145C5.86989 13.6144 5.8742 13.6138 5.87855 13.6131Z" fill="#EAA895"/>
<path d="M5.56059 13.7369C5.51028 13.7369 5.46948 13.7777 5.46948 13.828C5.46948 13.8784 5.51028 13.9191 5.56059 13.9191C5.6109 13.9191 5.65169 13.8784 5.65169 13.828C5.65169 13.7777 5.6109 13.7369 5.56059 13.7369Z" fill="#EAA895"/>
<path d="M5.77429 14.1106C5.77429 14.161 5.81509 14.2017 5.8654 14.2017C5.91571 14.2017 5.9565 14.1609 5.9565 14.1106C5.9565 14.0603 5.91571 14.0195 5.8654 14.0195C5.81509 14.0195 5.77429 14.0603 5.77429 14.1106Z" fill="#EAA895"/>
<path d="M5.56059 14.3243C5.51028 14.3243 5.46948 14.3651 5.46948 14.4154C5.46948 14.4658 5.51028 14.5066 5.56059 14.5066C5.6109 14.5066 5.65169 14.4658 5.65169 14.4154C5.65169 14.3651 5.6109 14.3243 5.56059 14.3243Z" fill="#EAA895"/>
<path d="M5.95644 14.698C5.95644 14.6477 5.91565 14.6069 5.86534 14.6069C5.8207 14.6069 5.78369 14.6391 5.77588 14.6815C5.83465 14.6956 5.89371 14.7088 5.95301 14.7215C5.95503 14.714 5.95644 14.7062 5.95644 14.698Z" fill="#EAA895"/>
<path d="M5.27798 13.6144C5.30359 13.6144 5.32667 13.6037 5.34324 13.5867C5.29604 13.5828 5.24896 13.5783 5.20203 13.5735C5.21833 13.5981 5.24623 13.6144 5.27798 13.6144Z" fill="#EAA895"/>
<path d="M4.88208 13.828C4.88208 13.8784 4.92287 13.9191 4.97318 13.9191C5.02349 13.9191 5.06429 13.8784 5.06429 13.828C5.06429 13.7777 5.02349 13.7369 4.97318 13.7369C4.92287 13.7369 4.88208 13.7777 4.88208 13.828Z" fill="#EAA895"/>
<path d="M5.27799 14.0195C5.22768 14.0195 5.18689 14.0603 5.18689 14.1106C5.18689 14.161 5.22768 14.2017 5.27799 14.2017C5.3283 14.2017 5.3691 14.1609 5.3691 14.1106C5.36913 14.0603 5.32833 14.0195 5.27799 14.0195Z" fill="#EAA895"/>
<path d="M4.97316 14.3243C4.92584 14.3243 4.8874 14.3605 4.88293 14.4067C4.93771 14.4275 4.99284 14.4475 5.04823 14.467C5.05833 14.4523 5.06429 14.4346 5.06429 14.4155C5.06426 14.3651 5.02347 14.3243 4.97316 14.3243Z" fill="#EAA895"/>
<path d="M4.6905 13.6144C4.74081 13.6144 4.78161 13.5736 4.78161 13.5233C4.78161 13.5216 4.78119 13.5201 4.78111 13.5185C4.7226 13.5092 4.6643 13.4994 4.60624 13.4888C4.60186 13.4994 4.59937 13.5111 4.59937 13.5233C4.59939 13.5736 4.64019 13.6144 4.6905 13.6144Z" fill="#EAA895"/>
<path d="M4.29468 13.828C4.29468 13.8784 4.33547 13.9191 4.38578 13.9191C4.43609 13.9191 4.47689 13.8784 4.47689 13.828C4.47689 13.7777 4.43609 13.7369 4.38578 13.7369C4.33547 13.7369 4.29468 13.7777 4.29468 13.828Z" fill="#EAA895"/>
<path d="M4.69059 14.0195C4.64028 14.0195 4.59949 14.0603 4.59949 14.1106C4.59949 14.161 4.64028 14.2017 4.69059 14.2017C4.7409 14.2017 4.7817 14.1609 4.7817 14.1106C4.78173 14.0603 4.74093 14.0195 4.69059 14.0195Z" fill="#EAA895"/>
<path d="M3.79837 13.3318C3.81951 13.3318 3.83872 13.3243 3.85417 13.3122C3.80671 13.2985 3.75948 13.2843 3.7124 13.2697C3.72456 13.3057 3.75825 13.3318 3.79837 13.3318Z" fill="#EAA895"/>
<path d="M4.01208 13.5232C4.01208 13.5736 4.05288 13.6143 4.10319 13.6143C4.1535 13.6143 4.1943 13.5735 4.1943 13.5232C4.1943 13.4729 4.1535 13.4321 4.10319 13.4321C4.05288 13.4321 4.01208 13.4729 4.01208 13.5232Z" fill="#EAA895"/>
<path d="M3.88949 13.828C3.88949 13.7777 3.84869 13.7369 3.79838 13.7369C3.74807 13.7369 3.70728 13.7777 3.70728 13.828C3.70728 13.8311 3.70789 13.834 3.70819 13.837C3.75024 13.8623 3.79274 13.8868 3.83533 13.9112C3.86719 13.897 3.88949 13.8652 3.88949 13.828Z" fill="#EAA895"/>
<path d="M4.10312 14.0195C4.08587 14.0195 4.0699 14.0246 4.05615 14.0329C4.10168 14.057 4.14743 14.0807 4.19352 14.1038C4.19002 14.0567 4.15111 14.0195 4.10312 14.0195Z" fill="#EAA895"/>
<path d="M3.11987 13.2406C3.11987 13.291 3.16067 13.3317 3.21098 13.3317C3.26129 13.3317 3.30208 13.291 3.30208 13.2406C3.30208 13.1903 3.26129 13.1495 3.21098 13.1495C3.16067 13.1495 3.11987 13.1903 3.11987 13.2406Z" fill="#EAA895"/>
<path d="M3.42468 13.5232C3.42468 13.5736 3.46548 13.6143 3.51579 13.6143C3.5661 13.6143 3.60689 13.5735 3.60689 13.5232C3.60689 13.4729 3.5661 13.4321 3.51579 13.4321C3.46548 13.4321 3.42468 13.4729 3.42468 13.5232Z" fill="#EAA895"/>
<path d="M2.92837 13.027C2.95133 13.027 2.97204 13.0182 2.98807 13.0042C2.93762 12.9828 2.88742 12.9608 2.83752 12.9384C2.83888 12.9875 2.87891 13.027 2.92837 13.027Z" fill="#EAA895"/>
<path d="M12.856 12.7497C12.8637 12.7418 12.8713 12.734 12.8789 12.7262C14.2314 11.3353 14.982 9.51082 14.9995 7.5694C15.0033 7.26692 14.9869 6.96427 14.954 6.66367C14.7681 4.97665 14.0212 3.41409 12.8037 2.19654C11.7642 1.15703 10.4731 0.460766 9.06787 0.163486C8.03808 -0.0544954 6.96251 -0.0544954 5.93272 0.163486C4.52753 0.460766 3.23644 1.15703 2.19693 2.19654C0.942958 3.45051 0.188187 5.07045 0.0313235 6.81542C0.000778999 7.15206 -0.00726829 7.49043 0.0076515 7.82826C0.0865678 9.67192 0.828916 11.396 2.12024 12.7247C2.24644 12.8554 2.37828 12.9806 2.51353 13.1017C3.88835 14.3288 5.64263 15 7.50032 15C9.35763 15 11.1116 14.329 12.4863 13.1024C12.613 12.9888 12.7372 12.8719 12.856 12.7497ZM4.33439 12.1852L1.92599 12.1581C1.00889 11.0625 0.408195 9.69368 0.265547 8.19315L2.3801 6.48352L4.33877 7.11993L5.47464 10.6158L4.33439 12.1852ZM10.6618 7.11996L12.5241 6.51485L14.7247 8.2941C14.5652 9.75503 13.9711 11.0871 13.0746 12.1581L10.6662 12.1852L9.52595 10.6158L10.6618 7.11996ZM13.5406 3.46229L12.4566 6.29276L10.5801 6.90244L7.61633 4.74912V2.99375L10.5154 0.887507C11.7461 1.45088 12.7932 2.34791 13.5406 3.46229ZM4.48523 0.887478L7.38426 2.99372V4.74909L4.42044 6.90244L2.44651 6.26107L1.406 3.54426C2.15654 2.39191 3.22454 1.46459 4.48523 0.887478ZM5.33023 14.437L4.6527 12.269C4.64451 12.2428 4.62738 12.2213 4.60553 12.207L5.65867 10.7574H9.34195L10.3942 12.2057C10.3714 12.2201 10.3535 12.242 10.345 12.269L9.66713 14.438C8.98249 14.6523 8.25468 14.7679 7.50032 14.7679C6.74476 14.7679 6.01583 14.6519 5.33023 14.437Z" fill="#31373D"/>
</svg>
