<svg width="60" height="60" viewBox="0 0 60 60" fill="none" xmlns="http://www.w3.org/2000/svg">
<ellipse rx="30" ry="30" transform="matrix(-4.37114e-08 -1 -1 5.2563e-08 30 30)" fill="#FFF9CC"/>
<path fill-rule="evenodd" clip-rule="evenodd" d="M23.3665 29.4822L28.9824 23.8661C29.4706 23.378 30.2621 23.378 30.7502 23.8661L36.6342 29.4822C37.1224 29.9704 37.1224 30.7618 36.6342 31.25C36.1461 31.7382 35.3546 31.7382 34.8665 31.25L31.1163 27.7678L31.1163 35.75C31.1163 36.4404 30.5567 37 29.8663 37C29.176 37 28.6163 36.4404 28.6163 35.75L28.6163 27.7678L25.1342 31.25C24.6461 31.7382 23.8546 31.7382 23.3665 31.25C22.8783 30.7618 22.8783 29.9704 23.3665 29.4822Z" fill="#B72228"/>
</svg>
