<svg width="34" height="34" viewBox="0 0 34 34" fill="none" xmlns="http://www.w3.org/2000/svg">
<ellipse cx="11.7692" cy="23.1026" rx="10.0256" ry="10.0256" fill="#B52327"/>
<path d="M16.5641 2.17948C9.90112 7.97635 8.27359 11.2222 10.8974 17L18.3077 23.5385C26.3648 21.7583 28.8248 20.2504 30.9487 17C30.9487 17 22.2308 18.3077 23.1026 14.8205C30.9487 9.15384 28.3334 2.17948 30.9487 2.17948C26.7343 0.293727 23.4059 2.05716 16.5641 7.84615V2.17948Z" fill="#B52327"/>
<path d="M25.4121 16.2121L25.4013 16.2082C24.6125 15.9251 24.3574 15.6372 24.3328 15.5246C24.3089 15.4153 24.4074 15.0676 24.9519 14.5337C25.2099 14.2807 25.5403 14.0766 25.9339 13.9271C27.5382 13.3173 28.5581 11.9478 28.8834 9.96654C29.0863 8.73066 28.9487 7.62743 28.9121 7.37702C28.7761 5.38884 31.1788 3.39445 32.12 2.79184L33.9699 1.61547L31.8698 0.986541C28.7632 0.0563738 25.6529 0.493938 22.6255 2.28728C20.1799 3.73583 18.3322 5.73116 17.1094 7.05153L16.9662 7.20609C16.8357 7.34669 16.6912 7.32552 16.5929 7.28257C16.4975 7.24109 16.3867 7.15279 16.4004 6.96751C16.5212 5.32118 17.4989 3.23421 17.5085 3.21397L19.031 0L16.0548 1.9465C12.3658 4.35908 9.47334 7.68781 9.37415 12.0956C7.13209 12.4368 4.97566 13.4683 3.25265 15.1913C-1.04438 19.4884 -1.04438 26.4802 3.25265 30.7773C5.4012 32.9258 8.22343 34.0001 11.0457 34.0001C17.1575 34.0001 22.0829 29.0528 22.061 22.9443C24.6352 22.7534 27.0979 21.8602 29.2383 20.3315C31.0772 19.0181 32.0424 17.6925 32.0826 17.6367L33.714 15.3719L31.0147 16.0822C27.6763 16.9607 25.5159 16.2477 25.4121 16.2121ZM17.4219 29.3603C13.9062 32.8761 8.18562 32.8761 4.66968 29.3603C1.15393 25.8445 1.15393 20.1239 4.66968 16.6081C8.3687 12.9091 14.5092 13.0986 17.9522 17.1873C20.9459 20.7578 20.7309 26.0512 17.4219 29.3603ZM21.8772 20.9496C20.9313 15.922 16.6131 12.1297 11.3818 11.9692C11.482 9.67412 12.5534 7.55222 14.5806 5.6291C14.4952 6.02592 14.4308 6.42935 14.402 6.82089C14.3288 7.81779 14.8749 8.72017 15.7933 9.11993C16.7155 9.52143 17.7526 9.30495 18.4356 8.56868L18.5798 8.41299C20.6649 6.16131 24.3342 2.19684 29.2756 2.53422C28.079 3.7019 26.747 5.49264 26.9174 7.57225L26.9209 7.61387L26.9278 7.65508C26.9336 7.69035 27.4894 11.1923 25.2223 12.054C24.5686 12.3024 24.0057 12.6552 23.5491 13.103C22.326 14.3023 22.2357 15.3148 22.3754 15.953C22.5798 16.8873 23.3696 17.6075 24.7226 18.0936C24.8767 18.1495 26.1948 18.6008 28.3298 18.5127C26.884 19.599 24.7165 20.7506 21.8772 20.9496Z" fill="#FDE200"/>
<path d="M6.79251 17.3156L8.2092 15.8989L9.6259 17.3156L8.2092 18.7323L6.79251 17.3156Z" fill="#FDE200"/>
<path d="M3.95892 20.1485L5.37562 18.7318L6.79231 20.1485L5.37562 21.5652L3.95892 20.1485Z" fill="#FDE200"/>
<path d="M8.20856 21.5666L9.62525 20.1499L11.0419 21.5666L9.62525 22.9833L8.20856 21.5666Z" fill="#FDE200"/>
</svg>
