<svg width="29" height="29" viewBox="0 0 29 29" fill="none" xmlns="http://www.w3.org/2000/svg">
<path fill-rule="evenodd" clip-rule="evenodd" d="M14.5 0H8.4058C7.18318 0 6.10573 0.290334 5.2941 0.509039C5.1292 0.553473 4.97528 0.59495 4.83334 0.630435C3.78261 1.05073 2.94203 1.47102 2.3116 2.31159C1.47102 3.15217 1.05073 3.99275 0.630445 4.83333L0.630441 4.83333C0.210151 5.67391 0 6.93478 0 8.4058V14.5V20.5942C0 21.8168 0.290336 22.8943 0.509042 23.7059C0.553477 23.8708 0.594955 24.0247 0.630441 24.1667C1.05073 25.2174 1.47102 26.058 2.3116 26.6884C3.15218 27.3188 3.99276 27.9493 4.83334 28.3696C5.67392 28.7899 6.93478 29 8.4058 29H14.5H20.5942C21.8168 29 22.8943 28.7097 23.7059 28.491C23.8708 28.4465 24.0247 28.4051 24.1667 28.3696C25.2174 27.9493 26.058 27.529 26.6884 26.6884C27.3188 25.8478 27.9493 25.0072 28.3696 24.1667C28.7899 23.3261 29 22.0652 29 20.5942V14.5V8.4058C29 7.18318 28.7097 6.10573 28.491 5.29409C28.4465 5.1292 28.405 4.97527 28.3696 4.83333C27.9493 3.78261 27.529 2.94203 26.6884 2.31159C25.8478 1.47103 25.0073 1.05074 24.1667 0.630455L24.1667 0.630435C23.3261 0.210145 22.0652 0 20.5942 0H14.5ZM24.1657 6.93458C24.1657 7.98531 23.3251 8.61574 22.4845 8.61574C21.6439 8.61574 20.8033 7.77515 20.8033 6.93458C20.8033 5.88385 21.6439 5.25342 22.4845 5.25342C23.3251 5.25342 24.1657 5.88385 24.1657 6.93458ZM14.4994 19.5431C11.7675 19.5431 9.66608 17.4416 9.66608 14.7098C9.66608 11.9779 11.7675 9.87642 14.4994 9.87642C17.2313 9.87642 19.3328 11.9779 19.3328 14.7098C19.3328 17.4416 17.2313 19.5431 14.4994 19.5431ZM14.4994 7.14453C10.2965 7.14453 6.9342 10.5069 6.9342 14.7098C6.9342 18.9127 10.2965 22.275 14.4994 22.275C18.7023 22.275 22.0646 18.9127 22.0646 14.7098C22.0646 10.5069 18.7023 7.14453 14.4994 7.14453Z" fill="#ADAEB0"/>
</svg>
