<svg width="20" height="20" viewBox="0 0 20 20" fill="none" xmlns="http://www.w3.org/2000/svg">
<circle cx="10" cy="10" r="10" fill="#FDE200"/>
<path d="M13.8181 11.9709V13.0618C13.8185 13.1631 13.7978 13.2633 13.7572 13.3561C13.7166 13.4489 13.6571 13.5322 13.5825 13.6007C13.5079 13.6691 13.4198 13.7213 13.3238 13.7537C13.2279 13.7861 13.1262 13.7982 13.0254 13.7891C11.9064 13.6675 10.8316 13.2851 9.88719 12.6727C9.00858 12.1144 8.26368 11.3695 7.70537 10.4909C7.09082 9.54225 6.70837 8.46217 6.58901 7.33817C6.57992 7.23762 6.59187 7.13627 6.6241 7.04058C6.65633 6.9449 6.70813 6.85697 6.7762 6.7824C6.84427 6.70783 6.92712 6.64825 7.01948 6.60745C7.11184 6.56666 7.21168 6.54554 7.31265 6.54545H8.40356C8.58003 6.54371 8.75112 6.6062 8.88492 6.72128C9.01873 6.83635 9.10613 6.99615 9.13083 7.1709C9.17687 7.52001 9.26227 7.8628 9.38537 8.19272C9.4343 8.32287 9.44489 8.46432 9.41589 8.60031C9.38688 8.7363 9.31951 8.86112 9.22174 8.95999L8.75992 9.42181C9.27758 10.3322 10.0314 11.086 10.9417 11.6036L11.4036 11.1418C11.5024 11.044 11.6272 10.9767 11.7632 10.9477C11.8992 10.9187 12.0407 10.9292 12.1708 10.9782C12.5007 11.1013 12.8435 11.1867 13.1926 11.2327C13.3693 11.2576 13.5306 11.3466 13.6459 11.4827C13.7613 11.6188 13.8225 11.7926 13.8181 11.9709Z" fill="white"/>
</svg>
