<svg width="25" height="35" viewBox="0 0 25 35" fill="none" xmlns="http://www.w3.org/2000/svg">
<path fill-rule="evenodd" clip-rule="evenodd" d="M3.28747 35H21.7556C21.9589 35 22.1843 34.8244 22.1244 34.6308L20.7946 30.253C20.7348 30.0594 20.6291 29.8857 20.4257 29.8857H4.61726C4.41587 29.8857 4.30821 30.0594 4.24839 30.253L2.91853 34.6308C2.85879 34.8244 3.0841 35 3.28747 35Z" fill="#F4E567"/>
<path fill-rule="evenodd" clip-rule="evenodd" d="M18.103 30.2528L19.4348 34.6305C19.4927 34.8242 19.2713 34.9978 19.07 34.9998H21.7556C21.9589 34.9998 22.1842 34.8241 22.1244 34.6305L20.7946 30.2528C20.7347 30.0591 20.6291 29.8855 20.4257 29.8855H17.7361C17.9375 29.8855 18.0452 30.0592 18.103 30.2528Z" fill="#FDE200"/>
<path fill-rule="evenodd" clip-rule="evenodd" d="M11.091 31.3329C7.78538 27.568 2.69336 22.6373 1.0405 18.04C-2.24718 8.89123 2.67142 0 12.5006 0C22.3278 0 27.2484 8.89123 23.9587 18.04C22.3079 22.6373 17.2158 27.568 13.9082 31.3329C12.6103 32.8122 12.391 32.8122 11.091 31.3329Z" fill="#E03C44"/>
<path fill-rule="evenodd" clip-rule="evenodd" d="M12.5006 20.7808C17.1899 20.7808 21.014 16.952 21.014 12.2569C21.014 7.55977 17.1899 3.73096 12.5006 3.73096C7.8113 3.73096 3.98529 7.55977 3.98529 12.2569C3.98529 16.952 7.8113 20.7808 12.5006 20.7808Z" fill="#F8F6F6"/>
<path fill-rule="evenodd" clip-rule="evenodd" d="M8.63874 12.4565L9.42624 13.6084L9.48407 15.0836L9.50998 16.0058C9.53589 16.3172 9.78909 16.4789 10.0802 16.419L11.0133 16.1895L12.5006 15.8242L13.988 16.1895L14.9211 16.419C15.2122 16.4789 15.4654 16.3172 15.4913 16.0058L15.5172 15.0836L15.575 13.6084L16.4244 12.3667L16.9488 11.5922C17.1003 11.3466 17.0225 11.0652 16.7215 10.9434L15.8163 10.626L14.3748 10.1189L13.4178 8.96914L12.8157 8.2485C12.728 8.15067 12.6163 8.09277 12.5007 8.08081C12.385 8.09277 12.2734 8.15067 12.1857 8.2485L11.5836 8.96914L10.6266 10.1189L9.18309 10.626L8.27992 10.9434C7.97887 11.0651 7.90107 11.3466 8.05263 11.5922L8.63874 12.4565Z" fill="#FB8627"/>
<path fill-rule="evenodd" clip-rule="evenodd" d="M12.8534 8.29248C13.2143 9.35649 13.4137 10.5223 13.4137 11.746C13.4137 13.2252 13.1226 14.6206 12.6063 15.8502L13.9879 16.1896L14.921 16.4191C15.2121 16.479 15.4653 16.3173 15.4912 16.0059L15.5171 15.0836L15.575 13.6084L16.4243 12.3668L16.9487 11.5923C17.1003 11.3467 17.0225 11.0653 16.7214 10.9435L15.8163 10.6261L14.3748 10.119L13.4178 8.96924L12.8534 8.29248Z" fill="#F2671F"/>
<path fill-rule="evenodd" clip-rule="evenodd" d="M16.4243 12.3666L15.5749 13.6083L15.5171 15.0835L15.4912 16.0057C15.4653 16.3172 15.2121 16.4788 14.921 16.4189L13.9879 16.1894L12.6062 15.8501C11.8286 17.7085 10.5387 19.1898 8.96558 20.0142C10.0422 20.5073 11.2404 20.7808 12.5005 20.7808C17.2018 20.7808 21.0138 16.964 21.0138 12.2569C21.0138 7.54774 17.2018 3.73096 12.5005 3.73096C11.6173 3.73096 10.764 3.86672 9.96246 4.11623C11.2465 5.1004 12.2652 6.5596 12.8534 8.29238L13.4176 8.96914L14.3747 10.1189L15.8161 10.626L16.7213 10.9434C17.0223 11.0651 17.1001 11.3466 16.9486 11.5922L16.4243 12.3666Z" fill="#E2E2E2"/>
<path fill-rule="evenodd" clip-rule="evenodd" d="M17.9835 18.7786C16.3964 22.5335 12.6981 26.4661 9.68545 29.7678C9.72134 29.8078 9.75723 29.8457 9.79114 29.8856C10.2457 30.3847 10.6823 30.8677 11.0911 31.3329C12.391 32.8122 12.6103 32.8122 13.9082 31.3329C14.3189 30.8678 14.7555 30.3847 15.2081 29.8856C18.424 26.3523 22.5112 22.0684 23.9587 18.04C27.2444 8.89923 22.3377 0.0139453 12.5265 0H12.5006H12.4747C11.3682 0.00198242 10.3254 0.115801 9.34851 0.329355C12.6542 0.910273 15.242 2.60709 16.9407 4.9806C19.385 6.4778 21.014 9.1767 21.014 12.2569C21.0139 14.874 19.8376 17.2156 17.9835 18.7786Z" fill="#D75459"/>
</svg>
