<svg width="29" height="29" viewBox="0 0 29 29" fill="none" xmlns="http://www.w3.org/2000/svg">
<path d="M28.0927 15.4056C27.5922 15.4056 27.1865 14.9999 27.1865 14.4994C27.1865 7.5038 21.4951 1.81243 14.4994 1.81243C13.999 1.81243 13.5932 1.40667 13.5932 0.906215C13.5932 0.405758 13.999 0 14.4994 0C18.3724 0 22.0136 1.50817 24.7521 4.24675C27.4907 6.98533 28.9989 10.6264 28.9989 14.4994C28.9989 14.9999 28.5931 15.4056 28.0927 15.4056Z" fill="#FDB440"/>
<path d="M24.4678 15.4055C23.9674 15.4055 23.5616 14.9998 23.5616 14.4993C23.5616 9.50246 19.4963 5.43719 14.4994 5.43719C13.999 5.43719 13.5932 5.03143 13.5932 4.53097C13.5932 4.03051 13.999 3.62476 14.4994 3.62476C20.4957 3.62476 25.374 8.50308 25.374 14.4993C25.374 14.9998 24.9683 15.4055 24.4678 15.4055Z" fill="#FDB440"/>
<path d="M20.8429 15.4057C20.3425 15.4057 19.9367 14.9999 19.9367 14.4995C19.9367 11.5013 17.4976 9.06219 14.4994 9.06219C13.999 9.06219 13.5932 8.65643 13.5932 8.15597C13.5932 7.65551 13.999 7.24976 14.4994 7.24976C18.497 7.24976 21.7492 10.5019 21.7492 14.4995C21.7492 14.9999 21.3434 15.4057 20.8429 15.4057Z" fill="#FDB440"/>
<path d="M28.9989 14.4994C28.9989 15.0001 28.5933 15.4056 28.0927 15.4056C27.9273 15.4056 27.7727 15.3615 27.6396 15.2844C27.9103 15.1281 28.0927 14.8347 28.0927 14.4994C28.0927 10.6265 26.5844 6.98522 23.8459 4.24675C21.2791 1.6799 17.9193 0.193703 14.3188 0.0175579C14.3771 0.00623023 14.4377 0 14.4994 0C18.3724 0 22.0137 1.50828 24.7521 4.24675C27.4906 6.98522 28.9989 10.6265 28.9989 14.4994Z" fill="#FDE200"/>
<path d="M25.374 14.4993C25.374 15 24.9685 15.4055 24.4678 15.4055C24.3024 15.4055 24.1478 15.3614 24.0147 15.2843C24.2854 15.128 24.4678 14.8346 24.4678 14.4993C24.4678 8.73977 19.9667 4.0116 14.2972 3.64741C14.3624 3.63269 14.4298 3.62476 14.4994 3.62476C20.4958 3.62476 25.374 8.50302 25.374 14.4993Z" fill="#FDE200"/>
<path d="M21.7492 14.4995C21.7492 15.0002 21.3436 15.4057 20.8429 15.4057C20.6776 15.4057 20.5229 15.3615 20.3898 15.2845C20.6606 15.1282 20.8429 14.8348 20.8429 14.4995C20.8429 10.7279 17.9482 7.62017 14.2638 7.28091C14.3392 7.26052 14.4179 7.24976 14.4994 7.24976C18.497 7.24976 21.7492 10.5019 21.7492 14.4995Z" fill="#FDE200"/>
<path d="M29.0001 20.8203C29.0001 22.1938 28.675 23.4947 28.0344 24.6864C27.4329 25.8045 26.5618 26.7832 25.514 27.5172C24.4707 28.2484 23.2598 28.731 22.0132 28.9139C21.6223 28.9711 21.2315 29 20.8424 29C19.9062 29 18.9779 28.8346 18.0706 28.505C14.0719 27.0522 10.3604 24.6864 7.337 21.6631C4.31364 18.6397 1.94785 14.9282 0.495078 10.9295C0.0283773 9.64496 -0.109254 8.31848 0.0861485 6.98691C0.269091 5.7403 0.75165 4.52937 1.48285 3.48609C2.21689 2.43828 3.1956 1.56718 4.31364 0.965685C5.50531 0.325104 6.8063 0 8.17978 0C8.6074 0 8.97668 0.298484 9.06617 0.716476L10.4884 7.3545C10.5529 7.65468 10.4606 7.96789 10.2431 8.18482L7.81276 10.6157C10.1055 15.174 13.8261 18.8946 18.3843 21.1873L20.8153 18.7569C21.0322 18.5395 21.3454 18.4471 21.6456 18.5117L28.2836 19.9339C28.7016 20.0234 29.0001 20.3927 29.0001 20.8203Z" fill="#D75459"/>
<path d="M6.0841 2.09562C4.71062 2.09562 3.40963 2.42073 2.21796 3.06131C1.95459 3.2029 1.69859 3.35979 1.45221 3.53084C1.46184 3.51555 1.4726 3.50082 1.48279 3.48609C2.21683 2.43828 3.19554 1.56718 4.31358 0.965685C5.50525 0.325104 6.80624 0 8.17972 0C8.60734 0 8.97662 0.298484 9.06611 0.716476L10.4883 7.3545C10.5529 7.65468 10.4605 7.96789 10.2431 8.18482L8.14744 10.2804C8.36493 10.0635 8.45725 9.7503 8.39268 9.45012L6.97049 2.8121C6.881 2.39411 6.51172 2.09562 6.0841 2.09562Z" fill="#D14C51"/>
<path d="M18.3843 21.1873L17.1821 22.3895C16.637 22.9346 15.7949 23.0415 15.1266 22.6572C11.4791 20.5602 8.43987 17.5209 6.34278 13.8734C5.95854 13.2051 6.06542 12.363 6.61051 11.8179L7.81266 10.6157C10.1054 15.174 13.826 18.8946 18.3843 21.1873Z" fill="#D14C51"/>
<path d="M29 20.8203C29 22.1937 28.6749 23.4947 28.0343 24.6864C27.4328 25.8044 26.5617 26.7831 25.5139 27.5172C25.4992 27.5274 25.4845 27.5381 25.4692 27.5478C25.6402 27.3014 25.7971 27.0454 25.9387 26.782C26.5793 25.5903 26.9044 24.2894 26.9044 22.9159C26.9044 22.4883 26.6059 22.119 26.1879 22.0295L19.5499 20.6073C19.2497 20.5427 18.9365 20.635 18.7196 20.8525L20.8152 18.7569C21.0321 18.5394 21.3453 18.4471 21.6455 18.5117L28.2835 19.9339C28.7015 20.0234 29 20.3926 29 20.8203Z" fill="#D14C51"/>
</svg>
