<svg width="58" height="58" viewBox="0 0 58 58" fill="none" xmlns="http://www.w3.org/2000/svg">
<path fill-rule="evenodd" clip-rule="evenodd" d="M11.8189 46.2798C16.2631 49.3866 17.0241 48.7928 17.1526 52.3329L21.7959 54.7416L26.3879 52.3329L26.3429 48.5778C26.314 46.0809 26.5356 42.7879 24.869 40.7821L20.884 35.9806C18.5623 33.9876 15.5117 36.5358 17.7756 39.1066C18.6394 40.0823 18.9606 40.4964 19.7408 41.3372C20.9065 42.5344 19.4262 44.4954 17.8367 43.3111L13.4471 39.3955C12.6411 38.5739 11.88 38.0283 11.3438 37.0076L8.35744 31.3268C7.14363 28.8427 4.08662 30.4378 5.05643 32.7005L9.674 43.4844C10.2807 44.8965 11.2119 45.8177 11.8189 46.2798Z" fill="#FFE5C1"/>
<path fill-rule="evenodd" clip-rule="evenodd" d="M33.8537 40.7821C32.1871 42.7879 32.4086 46.0809 32.3798 48.5778L32.3348 52.3329L36.9267 54.7416L41.57 52.3329C41.6985 48.7928 42.4595 49.3866 46.9005 46.2798C47.5106 45.8176 48.4418 44.8965 49.0455 43.4844L53.6663 32.7005C54.6361 30.4378 51.5758 28.8427 50.3653 31.3268L47.379 37.0076C46.8427 38.0283 46.0817 38.5739 45.2757 39.3955L40.886 43.3111C39.2965 44.4954 37.8162 42.5344 38.9786 41.3372C39.7589 40.4964 40.0832 40.0823 40.9438 39.1066C43.2109 36.5358 40.1602 33.9874 37.8387 35.9806L33.8537 40.7821Z" fill="#FFE5C1"/>
<path fill-rule="evenodd" clip-rule="evenodd" d="M15.9836 56.1715C15.9836 56.7108 16.4235 57.1504 16.9598 57.1504H26.6317C27.168 57.1504 27.6079 56.7106 27.6079 56.1715V53.3087C27.6079 52.7728 27.168 52.333 26.6317 52.333H26.3877H17.1525H16.9598C16.4235 52.333 15.9836 52.7728 15.9836 53.3087V56.1715Z" fill="#FDB440"/>
<path fill-rule="evenodd" clip-rule="evenodd" d="M31.1145 53.3087V56.1715C31.1145 56.7108 31.5544 57.1504 32.0906 57.1504H41.7626C42.2989 57.1504 42.7387 56.7106 42.7387 56.1715V53.3087C42.7387 52.7728 42.2989 52.333 41.7626 52.333H41.5699H32.3347H32.0906C31.5545 52.333 31.1145 52.7727 31.1145 53.3087Z" fill="#FDB440"/>
<path fill-rule="evenodd" clip-rule="evenodd" d="M18.0869 36.2599L22.0688 41.058C23.7354 43.0672 23.5138 46.3568 23.5427 48.8571L23.5844 52.333H26.3877L26.3428 48.5779C26.3139 46.081 26.5355 42.788 24.8689 40.7822L20.8839 35.9807C19.6958 34.9601 18.3117 35.1302 17.554 35.8876C17.7337 35.9871 17.9103 36.109 18.0869 36.2599Z" fill="#FED1A3"/>
<path fill-rule="evenodd" clip-rule="evenodd" d="M39.7846 51.6525L39.7685 52.3329H41.5699C41.6984 48.8153 42.4498 49.3802 46.8265 46.3311C46.8522 46.315 46.8779 46.2958 46.9004 46.2798C47.5105 45.8176 48.4417 44.8965 49.0453 43.4844L53.6662 32.7005C54.3565 31.0893 53.0048 29.8184 51.7299 30.1136C52.0799 30.595 52.2147 31.2754 51.8776 32.02L47.0898 42.6337C45.6641 45.792 40.0125 45.3556 39.7846 51.6525Z" fill="#FED1A3"/>
<path fill-rule="evenodd" clip-rule="evenodd" d="M24.4836 53.3087V56.1715C24.4836 56.7108 24.0437 57.1504 23.5074 57.1504H26.6319C27.1681 57.1504 27.608 56.7106 27.608 56.1715V53.3087C27.608 52.7728 27.1681 52.333 26.6319 52.333H26.3878H23.5845H23.5074C24.0436 52.333 24.4836 52.7727 24.4836 53.3087Z" fill="#FE9900"/>
<path fill-rule="evenodd" clip-rule="evenodd" d="M39.6112 53.3087V56.1715C39.6112 56.7108 39.1745 57.1504 38.635 57.1504H41.7627C42.299 57.1504 42.7389 56.7106 42.7389 56.1715V53.3087C42.7389 52.7728 42.299 52.333 41.7627 52.333H41.57H39.7685H38.635C39.1745 52.333 39.6112 52.7727 39.6112 53.3087Z" fill="#FE9900"/>
<path d="M57.1504 12.6307H53.0883C52.6191 12.6307 52.2387 12.2503 52.2387 11.7811C52.2387 11.3119 52.6191 10.9315 53.0883 10.9315H57.1504C57.6196 10.9315 58 11.3119 58 11.7811C58 12.2503 57.6196 12.6307 57.1504 12.6307Z" fill="#554E56"/>
<path d="M51.4062 6.08344C51.1523 6.08344 50.9012 5.97016 50.7337 5.7538C50.4465 5.38269 50.5145 4.84913 50.8856 4.56196L54.2573 1.95264C54.6285 1.66536 55.1621 1.73344 55.4491 2.10455C55.7363 2.47566 55.6683 3.00922 55.2972 3.29639L51.9255 5.90571C51.7709 6.02544 51.5878 6.08344 51.4062 6.08344Z" fill="#554E56"/>
<path d="M54.7767 21.7842C54.595 21.7842 54.4121 21.7262 54.2573 21.6064L50.8856 18.9971C50.5145 18.71 50.4465 18.1763 50.7337 17.8053C51.0209 17.4342 51.5545 17.3661 51.9255 17.6534L55.2972 20.2627C55.6683 20.5499 55.7363 21.0835 55.4491 21.4545C55.2818 21.6709 55.0307 21.7842 54.7767 21.7842Z" fill="#554E56"/>
<path d="M4.90848 12.6307H0.849609C0.380398 12.6307 0 12.2503 0 11.7811C0 11.3119 0.380398 10.9315 0.849609 10.9315H4.90848C5.37769 10.9315 5.75809 11.3119 5.75809 11.7811C5.75809 12.2503 5.37769 12.6307 4.90848 12.6307Z" fill="#554E56"/>
<path d="M6.59046 6.08346C6.40876 6.08346 6.22581 6.02546 6.07107 5.90572L2.69948 3.2964C2.32837 3.00923 2.2604 2.47556 2.54757 2.10457C2.83473 1.73346 3.3684 1.66549 3.7394 1.95266L7.1111 4.56198C7.48221 4.84914 7.55018 5.38281 7.26301 5.75381C7.09558 5.97018 6.84432 6.08346 6.59046 6.08346Z" fill="#554E56"/>
<path d="M3.21999 21.7842C2.96602 21.7842 2.71499 21.6709 2.54744 21.4546C2.26028 21.0835 2.32825 20.5499 2.69935 20.2627L6.07106 17.6534C6.44228 17.3663 6.97583 17.4343 7.26289 17.8053C7.55006 18.1764 7.48209 18.71 7.11098 18.9972L3.73939 21.6065C3.58465 21.7262 3.40158 21.7842 3.21999 21.7842Z" fill="#554E56"/>
<path fill-rule="evenodd" clip-rule="evenodd" d="M10.0142 26.3201H20.4407H24.5638C27.9675 26.3201 28.2276 19.2689 23.2826 19.0827L13.8996 19.1597C11.6518 19.792 9.45535 20.6971 9.45535 23.9258V25.7617C9.45547 26.0698 9.7091 26.3201 10.0142 26.3201Z" fill="#B72229"/>
<path fill-rule="evenodd" clip-rule="evenodd" d="M13.8996 19.1597L18.2186 21.692C18.9507 22.167 19.3713 22.167 20.1034 21.692L23.2825 19.8272C23.7321 18.8356 23.6567 17.2214 22.0814 16.9163C22.5155 17.0004 20.4659 15.6134 19.3331 15.623C17.9901 15.6345 16.7542 17.2083 16.4362 17.0318C16.25 17.4137 16.0091 18.5884 15.0972 18.8388C14.7056 18.9447 14.3011 19.0473 13.8996 19.1597Z" fill="#F5A96C"/>
<path fill-rule="evenodd" clip-rule="evenodd" d="M37.5432 26.3201H47.9665C48.2748 26.3201 48.5285 26.0698 48.5285 25.7616V23.9258C48.5285 20.7002 46.3353 19.7952 44.0907 19.1629L34.6981 19.8273C32.3412 20.3408 27.8905 26.3201 33.0573 26.3201H37.5432Z" fill="#B72229"/>
<path fill-rule="evenodd" clip-rule="evenodd" d="M37.8804 21.692C38.6125 22.167 39.0331 22.167 39.7652 21.692L44.0907 19.1629C43.686 19.0505 43.2815 18.9446 42.8865 18.8387C41.9746 18.5884 41.7337 17.4137 41.5442 17.0318C39.5372 16.0272 37.8321 16.1588 35.9022 16.9162C35.3371 17.6608 34.9646 18.7039 34.6981 19.8272L37.8804 21.692Z" fill="#F5A96C"/>
<path fill-rule="evenodd" clip-rule="evenodd" d="M12.2106 10.8023C12.2106 13.004 14.0377 15.7 16.4364 17.0318C16.7543 17.2083 17.0851 17.3592 17.419 17.4844C18.6778 17.953 19.6411 17.953 20.8999 17.4844C21.3077 17.3335 21.7028 17.1442 22.0817 16.9163C23.6872 15.6871 26.2658 9.49921 24.4323 8.1865C23.3534 7.51894 23.1366 5.25535 21.7173 5.62125C20.2176 6.00958 19.6621 6.20216 19.1034 6.20216C18.5479 6.20216 17.9923 6.00958 16.4895 5.62125C14.5501 5.12383 15.0237 8.48183 12.2107 8.67758V10.8023H12.2106Z" fill="#FFBC85"/>
<path fill-rule="evenodd" clip-rule="evenodd" d="M16.5456 6.83528C18.0484 7.22361 18.6039 7.41618 19.1595 7.41618C19.7182 7.41618 20.2737 7.22361 21.7733 6.83528C23.1926 6.46938 23.3533 7.51893 24.4322 8.1865C24.9074 7.75002 25.434 7.39058 25.996 7.11452C25.3666 2.99029 22.2646 0.900926 19.1595 0.849609C15.685 0.904211 12.2106 3.51988 12.2106 8.67757C15.0236 8.48182 14.6061 6.33786 16.5456 6.83528Z" fill="#554E56"/>
<path fill-rule="evenodd" clip-rule="evenodd" d="M35.9023 16.9163C36.2813 17.1442 36.6762 17.3335 37.0808 17.4844C38.3428 17.953 39.3029 17.953 40.5649 17.4844C40.8988 17.3592 41.2263 17.2083 41.5443 17.0318C43.9462 15.6999 45.7733 13.0039 45.7733 10.8023V8.67758C42.9603 8.48183 43.4357 5.29239 41.4961 5.79298C39.9933 6.18131 39.4377 6.37389 38.8822 6.37389C38.3235 6.37389 37.768 6.18131 36.2652 5.79298C34.8491 5.42709 34.6308 7.51894 33.5518 8.1865V14.3867C33.5518 14.3867 35.4854 16.6996 35.9023 16.9163Z" fill="#FFBC85"/>
<path fill-rule="evenodd" clip-rule="evenodd" d="M38.8244 7.41618C39.38 7.41618 39.9355 7.22361 41.4383 6.83528C43.3778 6.33457 42.9603 8.48171 45.7733 8.67757C45.7733 3.51988 42.2989 0.904211 38.8244 0.849609C35.7193 0.900926 32.6141 2.99029 31.9879 7.11452C32.5466 7.39058 33.0764 7.75002 33.5518 8.1865C34.6307 7.51893 34.7913 6.46938 36.2074 6.83528C37.7102 7.22361 38.2657 7.41618 38.8244 7.41618Z" fill="#554E56"/>
<path fill-rule="evenodd" clip-rule="evenodd" d="M28.0479 28.3678C28.7832 28.8396 29.2006 28.8396 29.9328 28.3678L34.2517 24.7026C33.8504 24.5902 33.4489 24.4876 33.0572 24.3816C32.142 24.1313 31.9011 22.9567 31.7149 22.5747C30.0226 20.9218 28.4139 20.5752 26.2688 22.5747C26.0825 22.9567 25.8417 24.1313 24.9265 24.3816C24.5348 24.4876 24.1333 24.5903 23.732 24.7026L28.0479 28.3678Z" fill="#FED1A3"/>
<path fill-rule="evenodd" clip-rule="evenodd" d="M17.0723 1.74827C20.1068 1.79641 23.1382 3.79911 23.8607 7.73722C24.0245 7.89446 24.2074 8.04852 24.4323 8.1865C24.9075 7.75002 25.4342 7.39058 25.9961 7.11452C25.3667 2.99029 22.2648 0.900926 19.1596 0.849609C17.8816 0.868867 16.6004 1.23794 15.4958 1.95048C16.0125 1.8253 16.5425 1.75473 17.0723 1.74827Z" fill="#393939"/>
<path fill-rule="evenodd" clip-rule="evenodd" d="M35.9023 16.9163C35.8317 17.4458 35.668 17.9914 35.4271 18.5338C37.0391 19.3651 37.8194 20.0326 39.7461 19.3169C39.9419 19.2463 39.9901 19.2303 40.1796 19.1404C40.7544 18.8676 40.7962 19.2784 40.7962 19.2784C40.9793 19.7373 41.2714 20.2894 41.8302 20.4852L44.0909 19.1629C43.6862 19.0505 43.2817 18.9446 42.8867 18.8386C41.9748 18.5883 41.7339 17.4137 41.5444 17.0317C41.2266 17.2082 40.8989 17.3591 40.565 17.4843C39.303 17.9529 38.3429 17.9529 37.0809 17.4843C36.6762 17.3335 36.2813 17.1442 35.9023 16.9163Z" fill="#EA9A58"/>
<path fill-rule="evenodd" clip-rule="evenodd" d="M44.0233 8.14154V10.6C44.0233 12.7984 42.1961 15.4944 39.7974 16.8264C39.4795 17.0029 39.1488 17.1569 38.8148 17.2821C38.33 17.4619 37.8868 17.571 37.4565 17.6126C38.5386 17.9465 39.4313 17.9047 40.5648 17.4843C40.8987 17.3591 41.2262 17.2082 41.5442 17.0317C43.9461 15.6998 45.7732 13.0038 45.7732 10.8022V8.67759C44.9706 8.62299 44.4311 8.40798 44.0233 8.14154Z" fill="#F5A96C"/>
<path fill-rule="evenodd" clip-rule="evenodd" d="M37.2253 1.05827C40.4814 1.17382 43.6957 3.53596 44.0104 8.13201C44.0169 8.13518 44.0201 8.13847 44.0232 8.14164C44.431 8.40807 44.9705 8.62308 45.7733 8.67757C45.7733 3.51988 42.2989 0.904211 38.8244 0.849609C38.285 0.856066 37.7487 0.926641 37.2253 1.05827Z" fill="#393939"/>
<path fill-rule="evenodd" clip-rule="evenodd" d="M26.2689 22.5746C26.5868 22.7511 26.9144 22.9051 27.2515 23.0271C28.5103 23.4957 29.4736 23.4957 30.7324 23.0271C31.0664 22.9051 31.3971 22.7511 31.715 22.5746C32.8999 21.9166 33.9436 20.9249 34.6982 19.8273C35.3436 18.8901 35.7739 17.8727 35.9023 16.9163C35.9281 16.7237 35.9409 16.5343 35.9409 16.345V14.2203C33.1279 14.0246 33.5486 10.6418 31.6058 11.1425C30.1062 11.5276 29.5507 11.7202 28.992 11.7202C28.4333 11.7202 27.8777 11.5276 26.3781 11.1425C24.4353 10.6418 24.0501 12.6574 22.0431 14.2203V16.345C22.0431 16.5344 22.0559 16.7237 22.0816 16.9163C22.2069 17.8727 22.6403 18.8901 23.2826 19.8273C24.0372 20.925 25.084 21.9166 26.2689 22.5746Z" fill="#FFE5C1"/>
<path fill-rule="evenodd" clip-rule="evenodd" d="M28.992 12.959C29.5507 12.959 30.1062 12.7665 31.6058 12.3781C33.5486 11.8807 33.1279 14.0246 35.9409 14.2204C35.9409 11.502 34.9743 9.48968 33.5518 8.1866C33.0765 7.75013 32.5467 7.39069 31.9879 7.11462C31.0503 6.64926 30.0195 6.40854 28.992 6.39246C27.9612 6.40854 26.9336 6.64926 25.996 7.11462C25.434 7.39069 24.9075 7.75013 24.4322 8.1866C23.0096 9.48968 22.0431 11.502 22.0431 14.2204C24.8561 14.0247 24.4353 11.8807 26.3781 12.3781C27.8777 12.7665 28.4333 12.959 28.992 12.959Z" fill="#554E56"/>
<path fill-rule="evenodd" clip-rule="evenodd" d="M31.3939 7.98427C32.4246 8.9279 33.2145 10.2438 33.5742 11.9287C33.7091 12.5642 33.783 12.76 33.783 13.3666C34.2293 13.7678 34.8363 14.1433 35.9409 14.2203C35.9409 13.7902 35.9184 13.3762 35.8702 12.9782C35.6229 10.8792 34.7495 9.28088 33.5518 8.18636C33.0765 7.74989 32.5467 7.39045 31.9879 7.11438C31.0503 6.64902 30.0195 6.4083 28.992 6.39221C28.8282 6.39538 28.6645 6.40184 28.5007 6.41793C28.9566 6.53665 29.403 6.70034 29.83 6.91217C30.3888 7.19152 30.9187 7.54779 31.3939 7.98427Z" fill="#393939"/>
<path fill-rule="evenodd" clip-rule="evenodd" d="M33.783 14.0214V16.1461C33.783 16.3322 33.7702 16.5216 33.7444 16.7142C33.616 17.6707 33.1857 18.688 32.5403 19.6252C31.7857 20.7229 30.742 21.7146 29.5571 22.3725C29.2393 22.549 28.9085 22.7031 28.5745 22.8251C28.1988 22.9663 27.8488 23.0626 27.5116 23.1204C28.6451 23.4927 29.5603 23.4639 30.7324 23.0273C31.0664 22.9053 31.3971 22.7512 31.715 22.5747C32.8999 21.9168 33.9436 20.925 34.6982 19.8274C35.3436 18.8902 35.7739 17.8729 35.9023 16.9164C35.9281 16.7238 35.9409 16.5344 35.9409 16.3452V14.2204C34.8363 14.1434 34.2293 13.7679 33.783 13.3668V14.0214Z" fill="#FED1A3"/>
<path fill-rule="evenodd" clip-rule="evenodd" d="M19.8659 19.5032C20.4825 19.2752 21.1985 18.6654 21.4907 19.4839L21.8311 20.6779L23.2826 19.8274C23.1188 19.5866 22.9647 19.3396 22.8298 19.0892C22.438 18.3703 22.1747 17.6257 22.0815 16.9164C21.7026 17.1443 21.3076 17.3336 20.8998 17.4845C19.641 17.9531 18.6777 17.9531 17.4189 17.4845C17.0849 17.3593 16.7542 17.2084 16.4363 17.0319C16.3143 17.2823 16.1666 17.8824 15.8165 18.3317C16.7287 18.9703 18.7613 19.9107 19.8659 19.5032Z" fill="#EA9A58"/>
<path fill-rule="evenodd" clip-rule="evenodd" d="M41.8301 20.4852C44.0747 21.1175 46.2679 22.0226 46.2679 25.2481V26.3201H47.9666C48.2748 26.3201 48.5285 26.0698 48.5285 25.7616V23.9258C48.5285 20.7002 46.3353 19.7952 44.0907 19.1629L41.8301 20.4852Z" fill="#810006"/>
<path fill-rule="evenodd" clip-rule="evenodd" d="M19.8466 31.8629H38.1373C38.4455 31.8629 38.696 31.6125 38.696 31.3044V29.4685C38.696 28.0051 38.2463 27.0197 37.5432 26.32C36.6955 25.4759 35.4817 25.0491 34.2518 24.7025L29.9329 27.2347C29.2007 27.7097 28.7833 27.7097 28.048 27.2347L23.7322 24.7025C22.5023 25.0491 21.2885 25.4759 20.4408 26.32C19.7376 27.0196 19.2881 28.0049 19.2881 29.4685V31.3044C19.2879 31.6125 19.5384 31.8629 19.8466 31.8629Z" fill="#FDE200"/>
<path fill-rule="evenodd" clip-rule="evenodd" d="M30.5236 24.6447C30.6103 24.8758 31.198 25.8546 32.0938 25.9702L34.2517 24.7025C33.8504 24.5901 33.4489 24.4875 33.0572 24.3815C32.142 24.1312 31.9011 22.9566 31.7149 22.5746C31.5864 22.6452 31.458 22.7126 31.3263 22.7768C31.1305 22.8699 30.9313 22.9533 30.7323 23.0271C29.5603 23.4636 28.6451 23.4925 27.5115 23.1203C27.4248 23.0914 27.338 23.0593 27.2514 23.0271C27.1872 23.0047 27.1261 22.979 27.062 22.9533C26.7923 22.8442 26.5257 22.719 26.2688 22.5746C26.1532 22.8089 26.0183 23.3481 25.7133 23.7845C25.6426 23.8873 28.8345 25.094 30.0868 24.558C30.4434 24.4041 30.392 24.2917 30.5236 24.6447Z" fill="#FFBC85"/>
<path fill-rule="evenodd" clip-rule="evenodd" d="M33.2113 26.3201C34.0334 26.6154 34.7976 27.0005 35.3853 27.5847C36.0854 28.2843 36.5381 29.2729 36.5381 30.7364V31.863H38.1373C38.4455 31.863 38.696 31.6126 38.696 31.3045V29.4687C38.696 28.0052 38.2463 27.0199 37.5432 26.3201C36.6955 25.4761 35.4817 25.0492 34.2518 24.7026L32.0939 25.9703C32.2577 26.0153 32.4247 26.0634 32.5884 26.1147C32.7972 26.1789 33.0058 26.2463 33.2113 26.3201Z" fill="#FE9900"/>
</svg>
