<svg width="58" height="52" viewBox="0 0 58 52" fill="none" xmlns="http://www.w3.org/2000/svg">
<path d="M45.9922 0.511597H5.09766C2.27684 0.511597 0 2.78844 0 5.60925V32.7968C0 35.6173 2.27684 37.8944 5.09766 37.8944H6.79688V46.3905C6.79688 47.0702 7.20469 47.6819 7.85039 47.9537C8.46211 48.2257 9.20988 48.0897 9.68543 47.5798L19.5184 37.8944H45.9922C48.813 37.8944 51.0898 35.6173 51.0898 32.7968V5.60925C51.0898 2.78844 48.813 0.511597 45.9922 0.511597Z" fill="#CB474D"/>
<path d="M51.0898 5.60925V32.7968C51.0898 35.6173 48.813 37.8944 45.9922 37.8944H25.6016V0.511597H45.9922C48.813 0.511597 51.0898 2.78844 51.0898 5.60925Z" fill="#B72229"/>
<path d="M52.7891 20.9022H42.5938H32.3984C29.5875 20.9022 27.3008 23.1889 27.3008 25.9999V39.5936C27.3008 42.4046 29.5875 44.6913 32.3984 44.6913H41.8902L42.5938 45.3949L48.1893 50.9904C48.6798 51.4809 49.415 51.6201 50.0412 51.3588C50.6767 51.0967 51.09 50.476 51.09 49.7891V44.6914H52.7892C55.6001 44.6914 58.0001 42.4047 58.0001 39.5937V26C58 23.1889 55.6 20.9022 52.7891 20.9022Z" fill="#FDE200"/>
<path d="M50.0411 51.3587C50.6766 51.0965 51.0898 50.4759 51.0898 49.7889V44.6913H52.7891C55.6 44.6913 58 42.4046 58 39.5936V25.9999C58 23.1889 55.6 20.9022 52.7891 20.9022H42.5938V45.3949L48.1893 50.9904C48.6798 51.4809 49.4149 51.6201 50.0411 51.3587Z" fill="#EED717"/>
<path d="M22.2031 27.6991H12.0078C11.0686 27.6991 10.3086 26.9391 10.3086 25.9999C10.3086 25.0607 11.0686 24.3007 12.0078 24.3007H22.2031C23.1423 24.3007 23.9023 25.0607 23.9023 25.9999C23.9023 26.9391 23.1423 27.6991 22.2031 27.6991Z" fill="#F9F4F3"/>
<path d="M27.3008 19.203C27.3008 20.1545 26.5532 20.9022 25.6016 20.9022H12.0078C11.0561 20.9022 10.3086 20.1545 10.3086 19.203C10.3086 18.2513 11.0561 17.5038 12.0078 17.5038H25.6016C26.5532 17.5038 27.3008 18.2513 27.3008 19.203Z" fill="#F9F4F3"/>
<path d="M40.8945 12.4061C40.8945 13.3576 40.147 14.1053 39.1953 14.1053H12.0078C11.0561 14.1053 10.3086 13.3576 10.3086 12.4061C10.3086 11.4544 11.0561 10.7069 12.0078 10.7069H39.1953C40.147 10.7069 40.8945 11.4544 40.8945 12.4061Z" fill="#F9F4F3"/>
<path d="M47.1935 29.8962C46.5298 29.2325 45.4544 29.2325 44.7907 29.8962L42.5937 32.0932L40.8945 33.7924L39.547 32.4449C38.8833 31.7812 37.808 31.7812 37.1442 32.4449C36.4805 33.1086 36.4805 34.184 37.1442 34.8477L39.6931 37.3966C40.025 37.7285 40.4598 37.8944 40.8944 37.8944C41.3291 37.8944 41.764 37.7285 42.0958 37.3966L42.5937 36.8988L47.1935 32.299C47.8574 31.6352 47.8574 30.5599 47.1935 29.8962Z" fill="#F9F4F3"/>
<path d="M47.1935 29.8962C46.5298 29.2325 45.4544 29.2325 44.7907 29.8962L42.5938 32.0932V36.8988L47.1935 32.299C47.8574 31.6352 47.8574 30.5599 47.1935 29.8962Z" fill="#F0E6E1"/>
<path d="M27.3008 19.203C27.3008 20.1545 26.5532 20.9022 25.6016 20.9022V17.5038C26.5532 17.5038 27.3008 18.2513 27.3008 19.203Z" fill="#F0E6E1"/>
<path d="M40.8945 12.4061C40.8945 13.3576 40.147 14.1053 39.1953 14.1053H25.6016V10.7069H39.1953C40.147 10.7069 40.8945 11.4544 40.8945 12.4061Z" fill="#F0E6E1"/>
</svg>
