<svg width="58" height="58" viewBox="0 0 58 58" fill="none" xmlns="http://www.w3.org/2000/svg">
<path d="M51.2549 57.7198C54.9801 57.7198 58 54.6999 58 50.9747C58 47.2494 54.9801 44.2296 51.2549 44.2296C47.5297 44.2296 44.5098 47.2494 44.5098 50.9747C44.5098 54.6999 47.5297 57.7198 51.2549 57.7198Z" fill="#E5E1E5"/>
<path d="M52.4087 44.3298C53.7156 45.5599 54.5329 47.3045 54.5329 49.241C54.5329 52.9661 51.5131 55.9861 47.7878 55.9861C47.3943 55.9861 47.0092 55.9505 46.6342 55.8858C47.8414 57.0221 49.4663 57.7197 51.255 57.7197C54.9802 57.7197 58.0001 54.6999 58.0001 50.9746C58 47.6429 55.5838 44.8774 52.4087 44.3298Z" fill="#C9BFC8"/>
<path d="M18.8371 31.7288L17.7347 37.1131C17.6404 37.5743 17.3236 37.9585 16.8892 38.1391L5.68445 42.7964V47.8482L21.1635 41.7075C21.9149 41.4094 22.5052 40.8072 22.7886 40.0497L24.5249 35.4085L18.8371 31.7288Z" fill="#FED2A4"/>
<path d="M18.8371 31.7288L18.745 32.1787L21.0579 33.675L19.3215 38.3163C19.0382 39.0737 18.4477 39.6759 17.6965 39.974L5.68445 44.7391V47.8481L21.1635 41.7074C21.9149 41.4093 22.5052 40.8071 22.7886 40.0496L24.5249 35.4084L18.8371 31.7288Z" fill="#FFBD86"/>
<path d="M19.6694 26.6152L28.9889 30.526L35.9656 35.7818C36.8156 36.4222 37.3719 37.3784 37.5088 38.4343L39.2704 52.0315H34.2242L31.6482 38.9354L20.621 33.4757L19.6694 26.6152Z" fill="#FED2A4"/>
<path d="M37.5087 38.4343C37.3718 37.3784 36.8156 36.4222 35.9656 35.7818L28.9889 30.526L19.6694 26.6152L19.841 27.8527L26.2115 30.526L33.1881 35.7818C34.0382 36.4222 34.5945 37.3784 34.7314 38.4343L36.493 52.0315H39.2703L37.5087 38.4343Z" fill="#FFBD86"/>
<path d="M28.9889 30.526L35.2352 15.7203C35.7852 14.4166 35.2096 12.911 33.9306 12.3074L30.8463 10.852C29.144 10.0487 27.1148 10.4748 25.88 11.8947C25.2405 12.6302 24.7343 13.4713 24.3839 14.3805L19.6694 26.6152L28.9889 30.526Z" fill="#FDE200"/>
<path d="M33.9306 12.3075L30.8463 10.852C30.505 10.6914 30.1435 10.5771 29.7724 10.5126C29.4225 10.4519 29.0677 10.4355 28.7145 10.4639C28.7395 12.514 30.136 14.3692 32.2174 14.8862C32.2203 14.8869 32.2231 14.8875 32.2259 14.8883C32.6503 14.9929 32.8868 15.444 32.7169 15.8467L30.3124 21.5461C28.623 25.5504 24.0105 27.431 20.003 25.7492L19.7527 26.3986L19.6693 26.6152L28.9888 30.526L35.2351 15.7203C35.7851 14.4166 35.2095 12.911 33.9306 12.3075Z" fill="#FDB440"/>
<path d="M35.1245 15.9824L38.1073 17.9901H45.8978C46.9819 17.9901 47.8945 18.8021 48.0211 19.8795C48.1669 21.1201 47.2243 22.2212 45.9769 22.2674L37.9494 22.5648C37.4646 22.5829 36.9863 22.4484 36.5819 22.1805L33.3989 20.0721L35.1245 15.9824Z" fill="#FED2A4"/>
<path d="M34.2241 52.0314H39.2703L41.8545 54.3897C42.2521 54.7526 42.4786 55.2662 42.4786 55.8047C42.4786 56.8623 41.6218 57.7197 40.5649 57.7197H36.4918C35.2394 57.7197 34.2241 56.7037 34.2241 55.4504V52.0314Z" fill="#B72229"/>
<path d="M41.8545 54.3896L39.2703 52.0313H36.4419L39.0261 54.3896C39.4237 54.7524 39.6502 55.2661 39.6502 55.8046C39.6502 56.8622 38.7934 57.7196 37.7365 57.7196H40.5649C41.6218 57.7196 42.4787 56.8622 42.4787 55.8046C42.4787 55.2662 42.2521 54.7526 41.8545 54.3896Z" fill="#810006"/>
<path d="M5.68445 42.7987V47.8482L3.32775 50.4341C2.96514 50.8319 2.45186 51.0587 1.91366 51.0587C0.856859 51.0587 0 50.2013 0 49.1437V44.3925C0 43.5123 0.713106 42.7987 1.59273 42.7987H5.68445Z" fill="#B72229"/>
<path d="M1.91377 47.9319C0.856859 47.9319 0 47.0746 0 46.0169V49.1437C0 50.2013 0.856859 51.0587 1.91377 51.0587C2.45197 51.0587 2.96525 50.8321 3.32786 50.4341L5.68457 47.8482V44.7214L3.32786 47.3073C2.96525 47.7053 2.45186 47.9319 1.91377 47.9319Z" fill="#810006"/>
<path d="M21.4512 18.5285L19.222 18.6135L14.4038 23.3738C13.4798 24.2867 11.9919 24.282 11.0737 23.3631C10.1365 22.4254 10.1534 20.9005 11.111 19.9836L16.1511 15.158C16.7654 14.5698 17.5704 14.2216 18.4198 14.1766L21.459 14.0156L21.4512 18.5285Z" fill="#FED2A4"/>
<path d="M21.459 14.0158L21.4512 18.5286L25.1874 18.3862C25.9125 18.3586 26.5248 17.8387 26.6696 17.1277L27.0964 15.0324C27.2335 14.3595 26.6981 13.7385 26.0124 13.7748L21.459 14.0158Z" fill="#FE860A"/>
<path d="M38.1074 17.9902L35.1244 15.9825L33.399 20.0724L36.582 22.1808C36.7815 22.313 36.9991 22.4124 37.2266 22.4773L38.1074 17.9902Z" fill="#FDE200"/>
<path d="M35.2527 33.2255L28.9889 30.5262L19.6693 26.6154L15.8654 35.9382C15.6506 36.4646 15.771 37.0684 16.1714 37.4723L20.4484 41.7865C21.1085 42.4524 22.2219 42.3072 22.6889 41.4943L24.9599 37.5404L29.2079 40.5125C29.7797 40.9125 30.5577 40.838 31.043 40.3366L35.7109 35.5149C36.4013 34.8015 36.1646 33.6185 35.2527 33.2255Z" fill="#B72229"/>
<path d="M35.2527 33.2255L34.7714 33.0181L33.4433 34.39C31.575 36.3198 28.5815 36.6068 26.3806 35.0669L28.9889 30.5261L25.9873 29.2665L22.8705 34.6927C21.4397 37.1836 18.0303 37.6288 16.0079 35.5887L15.8654 35.9381C15.6506 36.4645 15.771 37.0683 16.1712 37.472L20.4486 41.7867C21.1088 42.4526 22.2217 42.3073 22.6888 41.4942L24.9598 37.5403L29.2077 40.5124C29.7797 40.9125 30.5576 40.8379 31.043 40.3364L35.7103 35.5153C36.4009 34.802 36.1642 33.6184 35.2527 33.2255Z" fill="#A81F25"/>
<path d="M31.9144 12.372C29.4402 11.7574 27.9331 9.25203 28.5481 6.77616L29.2905 3.78757C29.9055 1.3117 32.4098 -0.197095 34.8838 0.417569C37.3579 1.03223 38.8651 3.53756 38.2501 6.01344L37.5077 9.00202C36.8926 11.4779 34.3884 12.9867 31.9144 12.372Z" fill="#FED2A4"/>
<path d="M38.3196 5.6867C38.3004 5.79545 38.2777 5.9042 38.2505 6.01295L37.879 7.506V7.50713L37.5074 9.00245C36.9852 11.1038 35.1013 12.5085 33.0305 12.5085C32.6624 12.5085 32.2885 12.4643 31.9147 12.3714C30.638 12.0554 29.6196 11.2341 29.017 10.1738C29.3738 10.3754 29.7635 10.5351 30.1804 10.6382C32.6544 11.2533 35.1591 9.74444 35.7742 7.26811L35.9962 6.37545L36.5162 4.27975C36.8039 3.12315 36.6272 1.96088 36.1061 0.986665C36.0869 0.951548 36.0676 0.916431 36.0483 0.882446C36.0733 0.897173 36.0982 0.910767 36.1231 0.926626C37.7408 1.88272 38.6538 3.76885 38.3196 5.6867Z" fill="#FFBD86"/>
<path d="M34.8839 0.417569C32.4097 -0.197095 29.9055 1.3117 29.2905 3.78757L28.9193 5.28187L30.5144 6.34071C31.002 6.66446 31.6537 6.58098 32.0439 6.14473L32.6414 5.47682C33.0183 5.05553 33.6417 4.96139 34.1263 5.25264L37.8789 7.50773L38.2501 6.01344C38.8651 3.53756 37.358 1.03223 34.8839 0.417569Z" fill="#685E68"/>
<path d="M38.3197 5.6867C38.3004 5.79545 38.2778 5.9042 38.2506 6.01295L37.879 7.506V7.50713L35.9963 6.37545L36.5162 4.27975C36.804 3.12315 36.6273 1.96088 36.1062 0.986665C36.0869 0.951548 36.0676 0.916431 36.0484 0.882446C36.0733 0.897173 36.0982 0.910767 36.1232 0.926626C37.7408 1.88272 38.6539 3.76885 38.3197 5.6867Z" fill="#554E56"/>
</svg>
