<svg width="58" height="58" viewBox="0 0 58 58" fill="none" xmlns="http://www.w3.org/2000/svg">
<path d="M32.253 2.02217L38.4001 14.4777C38.9285 15.5483 39.9499 16.2904 41.1314 16.4621L54.8768 18.4595C57.8523 18.8919 59.0404 22.5484 56.8872 24.647L46.9409 34.3423C46.086 35.1757 45.6958 36.3764 45.8976 37.5532L48.2456 51.2431C48.7538 54.2065 45.6434 56.4664 42.9822 55.0672L30.6879 48.6038C29.6311 48.0481 28.3685 48.0481 27.3117 48.6038L15.0177 55.067C12.3564 56.4662 9.24599 54.2063 9.75429 51.2429L12.1023 37.5529C12.3041 36.3762 11.914 35.1754 11.0589 34.3421L1.11263 24.6469C-1.0404 22.5483 0.147696 18.8918 3.12303 18.4594L16.8685 16.462C18.05 16.2903 19.0714 15.5483 19.5998 14.4776L25.7469 2.02206C27.0776 -0.674038 30.9224 -0.674038 32.253 2.02217Z" fill="#FDE200"/>
<path d="M46.9415 34.3426C46.0856 35.1751 45.6956 36.3767 45.8982 37.5526L48.2455 51.243C48.7543 54.2062 45.6432 56.4663 42.9826 55.0667L42.6881 54.9119C44.4475 54.4787 45.8097 52.7554 45.4569 50.6993L43.0711 36.7888C42.8662 35.593 43.2621 34.3727 44.1319 33.5263L54.2384 23.6735C55.8359 22.1168 55.6228 19.7159 54.215 18.3629L54.8764 18.4595C57.8525 18.8915 59.04 22.5476 56.8872 24.6469L46.9415 34.3426Z" fill="#FED402"/>
<path d="M41.6441 34.8194C41.5192 31.4858 40.8458 28.465 39.9198 25.2924C39.9182 25.2924 20.3505 25.2924 20.3505 25.2924V40.3843V51.1657H37.2077C37.2077 51.1657 37.2077 45.2832 37.2077 45.2037C37.208 44.2177 37.8015 42.8668 38.4702 42.2039C40.8354 39.859 41.767 38.0999 41.6441 34.8194Z" fill="#FED2A4"/>
<path d="M38.4705 42.204C37.8021 42.8667 37.2083 44.2176 37.2083 45.2034V49.9935H34.875C34.875 49.9935 34.875 44.2549 34.875 44.1756C34.875 43.1898 35.4688 41.8388 36.1373 41.1762C38.502 38.8313 39.4341 38.0999 39.3105 34.8193C39.1857 31.4851 38.5126 28.4648 37.5863 25.2928H39.9195C40.8458 28.4648 41.5189 31.4853 41.6438 34.8193C41.7674 38.1 40.8353 39.8592 38.4705 42.204Z" fill="#FFBD86"/>
<path d="M40.3006 51.7069V56.2868C40.3006 57.2329 39.5335 57.9999 38.5874 57.9999H19.4122C18.4661 57.9999 17.699 57.2329 17.699 56.2868V51.7069C17.699 50.7608 18.4661 49.9938 19.4122 49.9938H38.5874C39.5335 49.9938 40.3006 50.7608 40.3006 51.7069Z" fill="#B72229"/>
<path d="M40.3009 51.7068V56.2865C40.3009 57.2335 39.5334 57.9999 38.5875 57.9999H36.2768C37.2226 57.9999 37.9902 57.2336 37.9902 56.2865V51.7068C37.9902 50.761 37.2227 49.9934 36.2768 49.9934H38.5875C39.5333 49.9934 40.3009 50.761 40.3009 51.7068Z" fill="#810006"/>
<path d="M24.9821 22.0806V28.2446C24.9821 29.7169 23.7886 30.9106 22.3162 30.9106C20.8439 30.9106 19.6502 29.717 19.6502 28.2446V22.0806C19.6502 20.6083 20.8437 19.4147 22.3162 19.4147C23.7886 19.4147 24.9821 20.6083 24.9821 22.0806Z" fill="#F6A96C"/>
<path d="M35.5533 22.0806V28.2446C35.5533 29.7169 34.3598 30.9106 32.8873 30.9106C31.415 30.9106 30.2214 29.717 30.2214 28.2446V22.0806C30.2214 20.6083 31.4149 19.4147 32.8873 19.4147C34.3597 19.4147 35.5533 20.6083 35.5533 22.0806Z" fill="#F6A96C"/>
<path d="M40.2789 24.597V30.0603C40.2789 31.3653 39.221 32.4231 37.9161 32.4231C36.6111 32.4231 35.5533 31.3652 35.5533 30.0603V24.597C35.5533 23.292 36.6112 22.2341 37.9161 22.2341C39.2211 22.234 40.2789 23.292 40.2789 24.597Z" fill="#F6A96C"/>
<path d="M30.314 20.8286V26.9925C30.314 28.4648 29.1205 29.6585 27.6481 29.6585C26.1758 29.6585 24.9821 28.465 24.9821 26.9925V20.8286C24.9821 19.3562 26.1756 18.1626 27.6481 18.1626C29.1204 18.1626 30.314 19.3561 30.314 20.8286Z" fill="#F6A96C"/>
<path d="M24.9821 22.0812V28.2444C24.9821 29.7167 23.7887 30.9101 22.3164 30.9101C21.9046 30.9101 21.5138 30.8168 21.165 30.6499C22.0598 30.2194 22.6781 29.3037 22.6781 28.2444V22.0812C22.6781 21.3451 22.3795 20.6777 21.8976 20.1948C21.6853 19.9837 21.4379 19.8064 21.165 19.6745C21.5138 19.5077 21.9046 19.4143 22.3164 19.4143C23.0525 19.4143 23.7187 19.7129 24.2016 20.1948C24.6835 20.6777 24.9821 21.3451 24.9821 22.0812Z" fill="#EA9B58"/>
<path d="M35.5532 22.0812V28.2444C35.5532 29.7167 34.3598 30.9101 32.8875 30.9101C32.4757 30.9101 32.0849 30.8168 31.7361 30.6499C32.6309 30.2194 33.2492 29.3037 33.2492 28.2444V22.0812C33.2492 21.3451 32.9506 20.6777 32.4687 20.1948C32.2564 19.9837 32.009 19.8064 31.7361 19.6745C32.0849 19.5077 32.4757 19.4143 32.8875 19.4143C33.6236 19.4143 34.2898 19.7129 34.7727 20.1948C35.2546 20.6777 35.5532 21.3451 35.5532 22.0812Z" fill="#EA9B58"/>
<path d="M40.2786 24.5964V30.0608C40.2786 31.3651 39.2205 32.4232 37.9162 32.4232C37.4974 32.4232 37.1042 32.3147 36.7636 32.1234C37.4858 31.7197 37.9746 30.9474 37.9746 30.0608V24.5964C37.9746 23.9442 37.711 23.3539 37.2828 22.9258C37.1288 22.7719 36.9549 22.64 36.7636 22.5339C37.1042 22.3425 37.4974 22.234 37.9162 22.234C38.5684 22.234 39.1587 22.4989 39.5868 22.9258C40.0139 23.3539 40.2786 23.9442 40.2786 24.5964Z" fill="#EA9B58"/>
<path d="M30.3144 20.8282V26.9925C30.3144 28.4648 29.121 29.6583 27.6487 29.6583H27.6475C27.2358 29.6583 26.8449 29.5649 26.4961 29.3981C27.3921 28.9676 28.0104 28.0529 28.0104 26.9925V20.8282C28.0104 20.0921 27.7118 19.4259 27.2299 18.943C27.0176 18.7307 26.769 18.5545 26.496 18.4227C26.8448 18.2558 27.2356 18.1625 27.6474 18.1625H27.6486C29.121 18.1626 30.3144 19.356 30.3144 20.8282Z" fill="#EA9B58"/>
<path d="M26.0932 38.1563C26.3737 35.8136 24.9257 33.8283 24.165 33.2269C24.0166 33.1096 23.4579 32.6908 23.3166 32.5073C23.1531 32.2951 23.3004 31.9874 23.5682 31.9814C23.72 31.978 23.8706 31.9677 24.0183 31.9795C25.055 32.0621 28.1698 32.6554 30.1351 31.2236C31.1725 30.4677 31.447 29.5389 31.3433 28.5318C31.3041 28.1506 31.0315 27.8351 30.6484 27.8351H20.8465C20.1191 27.8351 19.4203 28.0947 18.872 28.5601C17.7946 29.4756 16.9402 31.2771 16.6442 32.6254C16.454 33.4921 16.342 34.3933 16.3454 35.2816C16.358 38.6701 18.0995 41.1299 20.3505 43.5017L20.8338 44.0203H26.1224L26.0932 38.1563Z" fill="#FED2A4"/>
<path d="M31.3623 28.8098C31.378 29.2892 31.278 29.7932 31.0508 30.2168C30.9464 30.4115 30.7989 30.6131 30.6483 30.7732C30.5025 30.9284 30.3333 31.0788 30.135 31.2235C28.1693 32.6549 25.0545 32.0622 24.0185 31.9794C23.8456 31.9658 23.5121 31.9336 23.3657 32.0565C23.2428 32.1597 23.2182 32.3803 23.3163 32.5069C23.4228 32.6441 23.5723 32.7533 23.7026 32.863C23.7829 32.9308 23.8667 32.994 23.9491 33.0591C24.6789 33.6364 25.2231 34.3706 25.6067 35.2238C25.8034 35.6613 25.9517 36.1211 26.0389 36.593C26.086 36.8478 26.1153 37.1059 26.1249 37.3648C26.1275 37.4334 26.1298 38.1555 26.0927 38.1555C26.0923 38.1555 25.5176 38.1555 25.5176 38.1555C24.4455 38.1555 23.5331 37.3926 23.3232 36.3426C23.0654 35.0512 22.5894 34.0234 21.9081 33.4319C21.7529 33.2966 21.6701 33.0971 21.6701 32.8907V31.6738C21.6701 31.22 22.0148 30.8416 22.4662 30.7962C22.4689 30.796 22.4713 30.7956 22.4738 30.7954C23.4257 30.6997 24.3754 30.5854 25.3215 30.4407C25.8488 30.3602 26.3761 30.2704 26.8987 30.1596C28.2216 29.8797 30.0229 29.1727 30.6143 27.8345H30.6482C30.8873 27.8345 31.0833 27.9569 31.2059 28.1425C31.2083 28.146 31.2105 28.1484 31.2118 28.1519C31.3353 28.3653 31.3563 28.5634 31.3623 28.8098Z" fill="#FFBD86"/>
</svg>
